<svg xmlns="http://www.w3.org/2000/svg" width="46" height="38" viewBox="0 0 46 38" fill="none">
  <path fill-rule="evenodd" clip-rule="evenodd" d="M23.1133 0.5C10.6866 0.5 0.613352 10.8542 0.613352 23.6223C0.602102 28.2005 1.9251 32.6793 4.41584 36.4806C5.11334 37.5396 6.51283 37.8194 7.54333 37.1026C8.57608 36.3881 8.84608 34.9476 8.15083 33.8886C2.62485 25.3981 4.84334 13.9086 13.1076 8.22978C21.3718 2.55095 32.5498 4.8308 38.0757 13.3236C42.1257 19.5458 42.1257 27.6664 38.0757 33.8886C37.3805 34.9453 37.6505 36.3858 38.6787 37.1003C38.681 37.1003 38.681 37.1026 38.6832 37.1026C39.0567 37.3592 39.4932 37.498 39.9432 37.4957C40.6902 37.498 41.3922 37.1165 41.8107 36.4806C44.2992 32.6793 45.6245 28.2005 45.6132 23.6223C45.6132 10.8542 35.5377 0.5 23.1133 0.5ZM30.5158 15.0439L24.2608 21.4719C23.8873 21.3702 23.5003 21.3147 23.1133 21.3101C20.6293 21.3101 18.6133 23.3818 18.6133 25.9345C18.6178 26.3345 18.6718 26.7299 18.7708 27.1138L17.0158 28.9173C16.1338 29.8167 16.1293 31.2827 17.0023 32.1868L17.0158 32.2007C17.891 33.1094 19.3153 33.114 20.1973 32.2145L20.2108 32.2007L21.9658 30.3994C22.3393 30.5012 22.7263 30.5543 23.1133 30.559C25.5973 30.559 27.6133 28.4895 27.6133 25.9345C27.6088 25.5368 27.557 25.1391 27.4558 24.7553L33.7107 18.3273C34.595 17.4209 34.595 15.9503 33.7107 15.0439C32.8288 14.1375 31.3978 14.1375 30.5158 15.0439Z" fill="url(#paint0_linear_185_3746)"/>
  <defs>
    <linearGradient id="paint0_linear_185_3746" x1="-21.8868" y1="19" x2="14.4155" y2="63.1516" gradientUnits="userSpaceOnUse">
      <stop stop-color="#DF549D"/>
      <stop offset="0.511036" stop-color="#41B6E6"/>
      <stop offset="1" stop-color="#F05E25"/>
    </linearGradient>
  </defs>
</svg>