<svg width="85" height="33" viewBox="0 0 85 33" fill="none" xmlns="http://www.w3.org/2000/svg">
<path id="Union" fill-rule="evenodd" clip-rule="evenodd" d="M53.9615 32.9969H53.624L53.6271 33C53.44 32.9979 52.8144 32.9979 52.3889 32.9979H52.3865C52.1711 32.9979 52.0086 32.8016 52.0479 32.5887L52.5905 29.6132C52.6195 29.4501 52.7603 29.3307 52.926 29.3286C53.3765 29.3234 54.2049 29.313 54.2308 29.3099C54.5072 29.2715 54.7371 29.179 54.9152 29.0336C55.0913 28.8893 55.228 28.6868 55.3212 28.4313C55.4061 28.1965 55.4827 27.8798 55.5541 27.4643L57.563 16.4761H57.5641L57.5931 16.3172L59.1432 7.82574L59.6475 5.4048C59.8505 4.18342 60.1632 3.19261 60.5774 2.45937C60.9875 1.73132 61.4897 1.16945 62.0727 0.787247C62.6029 0.439321 63.2231 0.218103 64.0847 0.0716624C64.4513 0.00830868 65.0022 0 65.492 0C65.6227 0 65.7558 0.00090845 65.8899 0.00182418C65.9586 0.00229314 66.0276 0.00276401 66.0967 0.00311576C66.1653 0.00346352 66.2341 0.00392774 66.3028 0.00439143C66.4393 0.00531252 66.5754 0.00623151 66.7097 0.00623151H68.0538C68.2713 0.00623151 68.4349 0.204601 68.3945 0.41855L67.9099 2.97658C67.8788 3.14068 67.7359 3.25908 67.5692 3.25908H66.8485C66.2593 3.25908 65.8523 3.38163 65.6038 3.63401C65.3521 3.89054 65.0229 4.59885 64.909 5.33106L64.3115 8.19963L64.2628 8.43227H72.0136C72.1751 8.43227 72.2404 8.49355 72.2746 8.53925C72.3605 8.65349 72.4599 8.81862 72.5676 9.02634L74.8167 13.6397L74.9503 13.9139L75.1408 13.675L78.8055 9.06685C79.0023 8.83524 79.1721 8.66491 79.3108 8.56209C79.4279 8.47589 79.5542 8.43331 79.6971 8.43331H84.3351C84.4749 8.43331 84.4884 8.4707 84.4884 8.57352C84.4884 8.67634 84.4625 8.75112 84.3942 8.81759L77.0917 17.576L77.0099 17.6746L77.069 17.7889L81.706 26.7799C81.706 26.781 81.7194 26.8038 81.7194 26.8931C81.7194 26.9824 81.6936 27.0572 81.6407 27.1226C81.5962 27.1777 81.5413 27.2016 81.4616 27.2016H76.5129C76.3277 27.2016 76.2672 27.1288 76.2461 27.1034L76.2457 27.1029C76.1888 27.0354 76.0935 26.8942 75.9599 26.6085L73.4675 21.427L73.3339 21.1508L73.1423 21.3907L68.993 26.6013C68.7994 26.8308 68.6316 26.9928 68.497 27.0832C68.3779 27.1632 68.2485 27.2016 68.1025 27.2016H63.4644C63.3505 27.2016 63.3453 27.1756 63.3453 27.0936C63.3453 27.0053 63.3754 26.9253 63.4385 26.8495L71.1904 17.5562L71.2722 17.4576L71.2132 17.3433L68.934 12.9065C68.8284 12.7486 68.7093 12.598 68.6026 12.4973C68.2951 12.2408 67.7763 12.0881 67.214 12.0881L63.7709 12.0912H63.6104L63.5814 12.2491L60.7783 27.3927C60.5536 28.6327 60.2233 29.636 59.7977 30.3724C59.3773 31.0994 58.8678 31.6623 58.2848 32.0455C57.6987 32.4298 57.0194 32.6843 56.2666 32.8016C55.4516 32.9294 54.8438 32.9969 53.9615 32.9969ZM0.102516 27.0707C0.179143 27.1382 0.259913 27.1715 0.348967 27.1715H3.46896C3.55698 27.1715 3.62947 27.1413 3.69678 27.0759C3.76201 27.0126 3.79204 26.9461 3.79204 26.8661V22.3348L4.0095 22.3639C4.38228 22.4127 4.76542 22.4542 5.14856 22.4874C5.5317 22.5196 5.85167 22.5363 6.09916 22.5363C8.21782 22.5363 9.81043 21.9785 10.8335 20.8787C11.8607 19.7747 12.3816 18.2521 12.3816 16.3515V14.4073C12.3816 12.4433 11.8411 10.9051 10.7745 9.83436C9.70792 8.76358 8.13498 8.22144 6.1002 8.22144C5.11439 8.22144 4.13376 8.28375 3.1842 8.40735C2.23774 8.52886 1.38551 8.68257 0.651337 8.86432C0.235061 8.96507 0.119084 9.05127 0.0880185 9.0845C0.0300298 9.14578 0 9.25172 0 9.39919V26.8661C0 26.9149 0.0103551 26.9887 0.102516 27.0707ZM4.88865 11.2365C5.25729 11.2115 5.66528 11.1991 6.10123 11.1991H6.1002C6.59207 11.1991 7.00316 11.2811 7.32314 11.4431C7.64622 11.6083 7.90613 11.8451 8.09563 12.1463C8.27995 12.4381 8.41042 12.7829 8.48291 13.1703C8.55332 13.5473 8.58957 13.969 8.58957 14.4228V16.3608C8.58957 16.7981 8.55332 17.2145 8.48291 17.6009C8.41042 17.9956 8.27995 18.3445 8.09563 18.6374C7.90613 18.9386 7.64829 19.1785 7.32728 19.3509C7.00731 19.5223 6.59517 19.6095 6.10123 19.6095C5.78437 19.6095 5.42401 19.5919 5.02741 19.5586C4.62977 19.5254 4.27666 19.4911 3.96497 19.4579L3.79308 19.4392V11.3476L3.9598 11.3247C4.20728 11.2905 4.52001 11.2614 4.88865 11.2365ZM52.6899 21.9027C52.8484 21.8664 52.9602 21.7251 52.9602 21.5621V19.6885C52.9602 19.4818 52.7842 19.3208 52.5791 19.3405C52.2705 19.3696 51.8501 19.4091 51.6182 19.4236C51.2205 19.4485 50.7929 19.4693 50.3362 19.4859L48.9559 19.5358C48.4899 19.5524 48.0477 19.5607 47.6335 19.5607C47.093 19.5607 46.6374 19.4797 46.2791 19.3218C45.9177 19.1629 45.6205 18.9459 45.3958 18.6769C45.1711 18.4089 45.0106 18.0932 44.9184 17.738C44.8283 17.3963 44.7828 17.039 44.7828 16.6755V16.4325H53.2046C53.4137 16.4325 53.5535 16.3639 53.5535 16.0274V14.5817C53.5535 13.6605 53.4231 12.8016 53.1642 12.0268C52.9074 11.2593 52.517 10.5863 52.0055 10.0275C51.4939 9.46878 50.8436 9.02427 50.0742 8.70438C49.3017 8.3845 48.3781 8.22144 47.3746 8.22144C46.3712 8.22144 45.4652 8.37203 44.6833 8.66907C43.9046 8.9661 43.2378 9.39089 42.7014 9.93303C42.165 10.4762 41.7497 11.1482 41.4691 11.9313C41.1854 12.7196 41.0415 13.6107 41.0415 14.5817V16.3266C41.0415 17.4887 41.2268 18.4806 41.5913 19.273C41.9548 20.0634 42.4394 20.7063 43.0327 21.184C43.6292 21.6638 44.3085 22.0128 45.053 22.2195C45.8069 22.4293 46.5711 22.5363 47.3229 22.5363C48.4298 22.5363 49.3846 22.4864 50.1622 22.3877C50.8654 22.2974 51.8988 22.0876 52.6899 21.9027ZM45.4786 11.8347C45.9446 11.3299 46.5742 11.0744 47.3488 11.0744L47.3477 11.0755C48.1233 11.0755 48.7446 11.3278 49.193 11.8243C49.6372 12.3155 49.8619 13.0592 49.8619 14.0344V14.3273H44.7817V14.0344C44.7817 13.0747 45.0168 12.3342 45.4786 11.8347ZM31.7094 20.9721C32.7584 22.0097 34.1843 22.5363 35.9467 22.5363L35.9498 22.5394C36.7109 22.5394 37.383 22.4978 37.9473 22.4168C38.3564 22.3576 39.0709 22.2008 39.4592 22.1136C39.6176 22.0772 39.7295 21.936 39.7295 21.7729V19.6905C39.7295 19.4849 39.5545 19.3239 39.3505 19.3426C38.9383 19.381 38.3015 19.4402 38.0157 19.461C37.5735 19.4953 36.974 19.5119 36.2336 19.5119C35.9198 19.5119 35.6206 19.462 35.3441 19.3634C35.0541 19.2616 34.8004 19.083 34.5902 18.8327C34.3842 18.5896 34.2195 18.2635 34.1004 17.8657C33.9834 17.4763 33.9244 16.9913 33.9244 16.4263V14.3335C33.9244 13.7685 33.9834 13.2845 34.1004 12.8951C34.2185 12.4973 34.3842 12.1722 34.5892 11.9292C34.7984 11.6799 35.0521 11.5013 35.342 11.3985C35.6195 11.2998 35.9188 11.25 36.2315 11.25C36.9719 11.25 37.5715 11.2666 38.0136 11.3008C38.2822 11.3213 38.8598 11.3767 39.2705 11.416L39.3474 11.4234C39.5514 11.4431 39.7274 11.2821 39.7274 11.0755V8.98168C39.7274 8.81655 39.6145 8.6753 39.454 8.63999C39.0626 8.55482 38.345 8.40319 37.9442 8.34503C37.382 8.26402 36.7099 8.22248 35.9467 8.22248C34.1843 8.22248 32.7594 8.748 31.7094 9.78555C30.6615 10.8231 30.1292 12.3529 30.1292 14.3325V16.4252C30.1292 18.4058 30.6605 19.9356 31.7094 20.9721ZM24.1709 21.963C24.1709 22.1541 24.3262 22.3098 24.5168 22.3098V22.3109H27.6181C27.8087 22.3109 27.964 22.1551 27.964 21.964V8.72723C27.964 8.64726 27.9329 8.58079 27.8677 8.51744C27.8004 8.452 27.7289 8.42189 27.6409 8.42189H24.494C24.407 8.42189 24.3345 8.452 24.2672 8.51744C24.2009 8.58079 24.1709 8.64726 24.1709 8.72723V21.963ZM14.6256 21.9609C14.6256 22.153 14.7809 22.3088 14.9725 22.3088L14.9714 22.3109H18.0717C18.2633 22.3109 18.4186 22.1551 18.4186 21.963V12.1452L18.5232 12.0912C19.0099 11.8399 19.5422 11.6259 20.1034 11.4566C20.6667 11.2863 21.2849 11.2001 21.9383 11.2001H22.1454C22.2024 11.2001 22.2376 11.1814 22.2697 11.1336C22.3163 11.064 22.3391 10.9934 22.3391 10.9166V8.53198C22.3391 8.44993 22.3091 8.38242 22.2438 8.31907C22.1755 8.2526 22.103 8.22248 22.016 8.22248C21.4206 8.22248 20.821 8.32426 20.2339 8.52574C19.6468 8.72723 19.1145 9.01596 18.6537 9.38465L18.341 9.63495V8.73035C18.341 8.64934 18.3109 8.58183 18.2447 8.51744C18.1774 8.45097 18.1049 8.42085 18.0179 8.42085H14.9486C14.8606 8.42085 14.7892 8.45097 14.7219 8.5164C14.6556 8.57975 14.6256 8.64622 14.6256 8.72619V21.9609ZM24.1637 6.31979C24.231 6.38522 24.3024 6.41534 24.3904 6.41534H27.7434C27.8314 6.41534 27.9039 6.38522 27.9712 6.31979C28.0365 6.25644 28.0665 6.18997 28.0665 6.11V3.79291C28.0665 3.71294 28.0365 3.64647 27.9712 3.58312C27.9039 3.51769 27.8314 3.48757 27.7434 3.48757H24.3904C24.3034 3.48757 24.231 3.51769 24.1637 3.58312C24.0974 3.64647 24.0674 3.71294 24.0674 3.79291V6.11C24.0674 6.18997 24.0984 6.25644 24.1637 6.31979Z" fill="white"/>
</svg>
