<?xml version="1.0" encoding="UTF-8"?>
<svg version="1.1" xmlns="http://www.w3.org/2000/svg" width="1459" height="417">
<path d="M0 0 C1.14004486 0.0028299 2.28008972 0.00565979 3.4546814 0.00857544 C7.06104464 0.01968318 10.66715055 0.04477018 14.2734375 0.0703125 C16.73306931 0.08035446 19.19270504 0.08947817 21.65234375 0.09765625 C27.65112802 0.11959163 33.64976436 0.15297435 39.6484375 0.1953125 C39.03158261 3.8012899 38.41064742 7.40655394 37.7890625 11.01171875 C37.61713379 12.01706665 37.44520508 13.02241455 37.26806641 14.05822754 C35.63808621 23.4912641 33.69940008 32.84597775 31.6484375 42.1953125 C31.00817627 42.23495117 30.36791504 42.27458984 29.70825195 42.31542969 C26.79090408 42.50666191 23.87628071 42.72570096 20.9609375 42.9453125 C19.95353516 43.0071875 18.94613281 43.0690625 17.90820312 43.1328125 C16.93173828 43.21015625 15.95527344 43.2875 14.94921875 43.3671875 C13.60597534 43.4614502 13.60597534 43.4614502 12.2355957 43.55761719 C8.8491132 44.39233383 7.13644951 45.76882944 4.6484375 48.1953125 C-0.58874576 56.91954287 -2.16541532 67.40942142 -4.1015625 77.2578125 C-4.55434394 79.50074418 -5.01052549 81.74295754 -5.46783447 83.98497009 C-5.87582763 85.99412676 -6.27555986 88.00495579 -6.67480469 90.01586914 C-7.3515625 93.1953125 -7.3515625 93.1953125 -8.3515625 96.1953125 C-7.25797424 96.18643005 -6.16438599 96.17754761 -5.03765869 96.168396 C5.26233845 96.08735147 15.562271 96.02736693 25.8625145 95.98806381 C31.15815253 95.96717842 36.45353341 95.93884318 41.74902344 95.89355469 C46.85834535 95.85013122 51.96741974 95.82618257 57.07691193 95.81580353 C59.02740629 95.80840589 60.97788692 95.79396017 62.92827606 95.77239227 C65.65788678 95.74340478 68.38647137 95.73935454 71.11621094 95.74121094 C71.92469482 95.72682983 72.73317871 95.71244873 73.56616211 95.69763184 C77.11217499 95.72377093 79.19768417 95.85481326 82.06988525 98.0244751 C84.17299115 100.91668279 85.7467023 103.97648886 87.2734375 107.1953125 C87.97488123 108.6356014 88.67672285 110.07569657 89.37890625 111.515625 C89.93070557 112.65692871 89.93070557 112.65692871 90.49365234 113.82128906 C92.48845572 117.92223369 94.5408086 121.99430095 96.5859375 126.0703125 C97.42604214 127.74986953 98.26588494 129.42955755 99.10546875 131.109375 C99.5226416 131.9437207 99.93981445 132.77806641 100.36962891 133.63769531 C103.79589844 140.49023437 107.22216797 147.34277344 110.6484375 154.1953125 C114.28322834 150.61381882 117.54642186 146.92791487 120.6484375 142.8828125 C124.7489919 137.59777884 128.91566975 132.37504893 133.1484375 127.1953125 C137.81762969 121.47596797 142.4237407 115.71291853 146.95898438 109.88671875 C148.18237218 108.31788134 149.41529908 106.75649736 150.6484375 105.1953125 C151.05964844 104.65938477 151.47085937 104.12345703 151.89453125 103.57128906 C155.17564353 99.41879104 158.09480908 96.53326537 163.47612 95.8210907 C164.50711319 95.82172012 165.53810638 95.82234955 166.6003418 95.82299805 C167.77473312 95.81676926 168.94912445 95.81054047 170.15910339 95.80412292 C171.41757584 95.81333267 172.67604828 95.82254242 173.97265625 95.83203125 C175.27040482 95.83153275 176.56815338 95.83103424 177.90522766 95.83052063 C180.64470117 95.83061011 183.38387889 95.84099358 186.12329102 95.85913086 C189.63741969 95.88188494 193.15111914 95.88234756 196.66530132 95.87561321 C200.01780224 95.87147453 203.37017015 95.88343691 206.72265625 95.89453125 C207.98720139 95.89361984 209.25174652 95.89270844 210.55461121 95.89176941 C211.71954605 95.90130142 212.8844809 95.91083344 214.0847168 95.9206543 C215.11332321 95.92526169 216.14192963 95.92986908 217.20170593 95.93461609 C219.6484375 96.1953125 219.6484375 96.1953125 221.6484375 98.1953125 C221.90289783 102.26667778 221.38706542 104.23231202 218.88671875 107.4921875 C217.33564192 109.19214605 215.76231528 110.87196712 214.171875 112.53515625 C211.73424588 115.10485506 209.49615884 117.75147755 207.2734375 120.5078125 C203.94825688 124.6150478 200.57181117 128.67015077 197.1484375 132.6953125 C193.77546813 136.66423138 190.43666772 140.65548681 187.1484375 144.6953125 C183.39991104 149.300645 179.57759504 153.83735694 175.73217773 158.36157227 C172.8529843 161.75485359 170.01639513 165.17799036 167.2109375 168.6328125 C163.75569311 172.87923986 160.22138182 177.04820511 156.6484375 181.1953125 C151.54916998 187.11586795 146.5240137 193.08790283 141.6484375 199.1953125 C141.05160156 199.85273438 140.45476562 200.51015625 139.83984375 201.1875 C138.45675328 203.11870849 138.45675328 203.11870849 138.68359375 205.375 C140.11246798 209.55170928 142.07428361 213.39675927 144.0859375 217.3203125 C144.53839844 218.21355225 144.99085938 219.10679199 145.45703125 220.02709961 C148.68928233 226.38442123 151.99717771 232.70074757 155.33813477 239.00146484 C160.60970979 248.96455162 165.73910448 259.00161685 170.87255859 269.03637695 C174.35095558 275.82930865 177.84655712 282.60691974 181.4765625 289.3203125 C182.04004395 290.36928711 182.60352539 291.41826172 183.18408203 292.49902344 C184.20930409 294.39954261 185.24594044 296.29396959 186.29638672 298.18066406 C188.88042004 302.98872893 190.5454658 306.58532598 189.6484375 312.1953125 C188.48397827 313.86244202 188.48397827 313.86244202 186.6484375 315.1953125 C184.00552368 315.58299255 184.00552368 315.58299255 180.78759766 315.59936523 C178.98024643 315.61839149 178.98024643 315.61839149 177.13638306 315.63780212 C175.83325165 315.63486649 174.53012024 315.63193085 173.1875 315.62890625 C171.8361281 315.63346795 170.48475853 315.63877349 169.13339233 315.64479065 C166.30042095 315.65372659 163.46773136 315.65129447 160.63476562 315.64135742 C157.01077382 315.62988234 153.38775853 315.65005256 149.76389503 315.67927456 C146.97223769 315.69765787 144.18081327 315.69733972 141.38911057 315.69163704 C139.40550337 315.69140975 137.42191805 315.70829576 135.43838501 315.72544861 C134.22717987 315.71606766 133.01597473 315.70668671 131.76806641 315.69702148 C130.17280624 315.69677223 130.17280624 315.69677223 128.5453186 315.69651794 C124.89730755 315.06535535 123.27634721 313.76238214 120.6484375 311.1953125 C119.3931427 309.37501526 119.3931427 309.37501526 118.49536133 307.49438477 C118.14731445 306.78100952 117.79926758 306.06763428 117.44067383 305.3326416 C117.08255615 304.56673706 116.72443848 303.80083252 116.35546875 303.01171875 C115.77321533 301.80521667 115.77321533 301.80521667 115.17919922 300.57434082 C113.92792023 297.97432769 112.69429861 295.36636601 111.4609375 292.7578125 C110.60941027 290.97986338 109.75678818 289.20243821 108.90307617 287.42553711 C106.83777369 283.12002222 104.78609505 278.80820224 102.73974609 274.49365234 C101.22685279 271.30743812 99.70359072 268.12627552 98.1796875 264.9453125 C95.98942744 260.36812053 93.81251575 255.78493862 91.6484375 251.1953125 C90.9884375 251.1953125 90.3284375 251.1953125 89.6484375 251.1953125 C88.32033626 252.47807225 88.32033626 252.47807225 86.99609375 254.203125 C86.47273438 254.8528125 85.949375 255.5025 85.41015625 256.171875 C84.84941406 256.88085938 84.28867188 257.58984375 83.7109375 258.3203125 C83.12828125 259.04734375 82.545625 259.774375 81.9453125 260.5234375 C77.86759393 265.6228067 73.83389918 270.75725301 69.81469727 275.90283203 C65.77812252 281.06120329 61.65142497 286.14375546 57.49755859 291.20800781 C54.81336837 294.48984039 52.17488519 297.79210232 49.625 301.1796875 C49.14353516 301.81390625 48.66207031 302.448125 48.16601562 303.1015625 C47.27120947 304.28627078 46.38618211 305.4784641 45.51367188 306.6796875 C42.49595049 310.65867988 39.35078292 313.50463445 34.6484375 315.1953125 C30.21168181 315.76578099 25.81579816 315.73233913 21.34765625 315.69140625 C20.07493362 315.69286148 18.802211 315.69431671 17.49092102 315.69581604 C14.81003985 315.69416011 12.13059331 315.68473721 9.44995117 315.66186523 C6.01196084 315.63333716 2.57485526 315.63626406 -0.8632021 315.64895535 C-4.1471402 315.65756587 -7.43093351 315.64248243 -10.71484375 315.62890625 C-11.951241 315.63184189 -13.18763824 315.63477753 -14.46150208 315.63780212 C-15.59996078 315.62511795 -16.73841949 315.61243378 -17.91137695 315.59936523 C-18.91618607 315.59396225 -19.92099518 315.58855927 -20.95625305 315.58299255 C-21.74670517 315.45505814 -22.53715729 315.32712372 -23.3515625 315.1953125 C-25.3515625 312.1953125 -25.3515625 312.1953125 -25.2890625 309.890625 C-24.0397485 306.29884724 -21.85185692 303.85176452 -19.3515625 301.0703125 C-18.34032394 299.91217547 -17.32991861 298.7533104 -16.3203125 297.59375 C-15.81628906 297.01979492 -15.31226563 296.44583984 -14.79296875 295.85449219 C-12.75782817 293.51187441 -10.80374476 291.10724783 -8.8515625 288.6953125 C-5.10303604 284.08998 -1.28072004 279.55326806 2.56469727 275.02905273 C5.4438907 271.63577141 8.28047987 268.21263464 11.0859375 264.7578125 C15.04287168 259.89481826 19.11279692 255.13831047 23.20458984 250.38916016 C27.00007117 245.97499484 30.70121663 241.49198052 34.37109375 236.97265625 C37.38900924 233.29214525 40.4712355 229.66821713 43.55395508 226.04199219 C47.28587854 221.64409818 50.94492981 217.1911548 54.55859375 212.6953125 C57.0823999 209.67617991 59.80421868 206.88306277 62.62890625 204.14453125 C63.91582779 202.17500374 63.91582779 202.17500374 63.16796875 199.6640625 C60.99046412 194.69330642 58.59981316 189.84859084 56.1484375 185.0078125 C55.61669922 183.95223145 55.08496094 182.89665039 54.53710938 181.80908203 C51.1167957 175.04081532 47.66075576 168.29130776 44.1484375 161.5703125 C43.55385742 160.42719604 43.55385742 160.42719604 42.94726562 159.26098633 C41.87325614 157.22381064 40.76653975 155.2085247 39.6484375 153.1953125 C39.060625 152.09445313 38.4728125 150.99359375 37.8671875 149.859375 C34.51879735 145.8389488 30.27567123 144.51291534 25.19519043 143.89874268 C22.4681673 143.75552343 19.75413267 143.70209681 17.0234375 143.68359375 C16.03593506 143.66564255 15.04843262 143.64769135 14.03100586 143.62919617 C10.9035254 143.57538569 7.77619498 143.5412915 4.6484375 143.5078125 C2.51690634 143.4746136 0.3853949 143.44012159 -1.74609375 143.40429688 C-6.94778866 143.31967637 -12.1495009 143.25236094 -17.3515625 143.1953125 C-17.39015475 143.80086094 -17.42874701 144.40640938 -17.46850872 145.03030777 C-18.12315798 153.6137719 -19.65832542 161.99660906 -21.24731445 170.44433594 C-21.54680439 172.05699036 -21.84586457 173.66972464 -22.14453125 175.28253174 C-22.95192811 179.63488703 -23.76571791 183.98602341 -24.58103204 188.33690166 C-25.26384419 191.98409995 -25.94341841 195.63189846 -26.62299126 199.27970147 C-28.22807857 207.8953295 -29.83829041 216.50998857 -31.4519043 225.12402344 C-33.10972496 233.97445753 -34.75967108 242.82633294 -36.40558082 251.67898917 C-37.82474505 259.31075362 -39.24847132 266.94165721 -40.67585725 274.57188821 C-41.52574452 279.11515704 -42.37406255 283.65870305 -43.21813393 288.20305634 C-44.01316991 292.48212642 -44.81397407 296.76007964 -45.61898041 301.03728485 C-45.91117987 302.59479917 -46.20147094 304.15267311 -46.48956108 305.71095276 C-50.69919593 328.46132039 -55.98500571 354.37923251 -75.99609375 368.68359375 C-99.68121309 383.88449123 -128.37508779 381.49897011 -155.3515625 381.1953125 C-153.94542205 370.67335844 -152.15712255 360.25589634 -150.2265625 349.8203125 C-149.94636373 348.29431687 -149.6664145 346.7682754 -149.38671875 345.2421875 C-148.71119683 341.55936516 -148.03234369 337.87716674 -147.3515625 334.1953125 C-146.65071533 334.15567383 -145.94986816 334.11603516 -145.2277832 334.07519531 C-142.03841977 333.88412381 -138.85157633 333.66501477 -135.6640625 333.4453125 C-134.00987305 333.3525 -134.00987305 333.3525 -132.32226562 333.2578125 C-127.88904391 332.93637044 -124.28316194 332.65343745 -120.26953125 330.6796875 C-114.73607892 323.51211992 -114.04852685 313.15631159 -112.47265625 304.49609375 C-112.19023212 302.97093139 -111.90726371 301.44586975 -111.62380981 299.92089844 C-110.83818585 295.68466293 -110.06086045 291.44693896 -109.28471756 287.20895767 C-108.61487932 283.55857561 -107.93963751 279.90920187 -107.26432323 276.25982952 C-102.83638266 252.32960145 -98.47216274 228.38770256 -94.10964745 204.44548112 C-93.10923608 198.95547527 -92.1079337 193.46563243 -91.1061554 187.97587585 C-90.81765822 186.39480245 -90.52916125 184.81372901 -90.24066448 183.23265553 C-89.80671861 180.85448164 -89.37275499 178.47631099 -88.93872988 176.09815156 C-87.36536401 167.47672252 -85.79447017 158.85485846 -84.23117065 150.2315979 C-73.685233 92.06665216 -73.685233 92.06665216 -68.99390984 69.13045311 C-68.63539551 67.37541723 -68.28069992 65.6195953 -67.93051338 63.8628788 C-64.86593128 48.56746903 -60.76693375 33.91541671 -51.3515625 21.1953125 C-50.55298828 20.10476562 -50.55298828 20.10476562 -49.73828125 18.9921875 C-37.64714819 3.8710569 -18.36989723 -0.17463661 0 0 Z " fill="#2B51A1" transform="translate(976.3515625,17.8046875)"/>
<path d="M0 0 C2.58252345 -0.00969234 5.16424475 -0.0407917 7.74658203 -0.07226562 C26.02094477 -0.18947153 42.38101469 3.10946405 57.35205078 14.24023438 C58.36267578 14.96210937 59.37330078 15.68398437 60.41455078 16.42773438 C74.44105834 28.66693072 79.64228208 47.24578286 81.15795898 65.09033203 C82.9223905 93.72516903 83.35185781 125.16783954 63.60205078 148.11523438 C53.07744495 159.03669563 39.28919095 165.13088453 24.35205078 167.24023438 C23.57732422 167.35109375 22.80259766 167.46195313 22.00439453 167.57617188 C11.73712458 168.81158322 1.61601836 168.51062647 -8.61279297 167.22851562 C-9.39005737 167.13397095 -10.16732178 167.03942627 -10.96813965 166.9420166 C-12.86179434 166.71122516 -14.75492941 166.47617675 -16.64794922 166.24023438 C-16.64128738 166.85775574 -16.63462555 167.4752771 -16.62776184 168.11151123 C-16.5614219 174.53522539 -16.51615414 180.95884232 -16.4831543 187.3828125 C-16.4680624 189.78063916 -16.44758672 192.1784382 -16.42163086 194.57617188 C-16.38526611 198.0215537 -16.36822674 201.46657074 -16.35498047 204.91210938 C-16.33949661 205.9851532 -16.32401276 207.05819702 -16.30805969 208.16375732 C-16.3078331 209.1644928 -16.30760651 210.16522827 -16.30737305 211.19628906 C-16.30071121 212.07565125 -16.29404938 212.95501343 -16.28718567 213.86102295 C-16.73407463 216.80822569 -17.5286487 218.15450083 -19.64794922 220.24023438 C-21.62097168 220.74143982 -21.62097168 220.74143982 -23.88818359 220.74194336 C-24.73916626 220.75132431 -25.59014893 220.76070526 -26.46691895 220.77037048 C-27.38259644 220.75913651 -28.29827393 220.74790253 -29.24169922 220.73632812 C-30.18476929 220.73778336 -31.12783936 220.73923859 -32.0994873 220.74073792 C-34.09337452 220.73907792 -36.08727442 220.72750546 -38.08105469 220.70678711 C-41.13645748 220.67784324 -44.19012474 220.68617376 -47.24560547 220.69921875 C-49.18181184 220.69298113 -51.11801271 220.68459 -53.05419922 220.67382812 C-53.96987671 220.67676376 -54.8855542 220.6796994 -55.82897949 220.682724 C-56.67996216 220.67003983 -57.53094482 220.65735565 -58.40771484 220.64428711 C-59.15589478 220.63888412 -59.90407471 220.63348114 -60.67492676 220.62791443 C-63.37815515 220.09675589 -64.04557159 219.50845796 -65.64794922 217.24023438 C-65.94492746 214.46070027 -66.05688729 211.90456777 -66.03562927 209.12379456 C-66.04101481 208.28692531 -66.04640035 207.45005607 -66.05194908 206.58782715 C-66.06629851 203.77332857 -66.05910781 200.95929569 -66.05200195 198.14477539 C-66.05770188 196.13114034 -66.06466466 194.11750852 -66.07279968 192.10388184 C-66.09078806 186.62664652 -66.08955204 181.1495709 -66.0838573 175.67231488 C-66.08077361 171.10449625 -66.08684875 166.53670865 -66.09289604 161.96889442 C-66.10695835 151.1953013 -66.10536583 140.42178743 -66.09399414 129.64819336 C-66.08251114 118.52311024 -66.09658788 107.39826814 -66.12339061 96.27321678 C-66.14552184 86.73090493 -66.15219081 77.18866887 -66.1463142 67.64633316 C-66.14293726 61.94303776 -66.14540853 56.23989689 -66.16256523 50.536623 C-66.1779912 45.17431817 -66.17412718 39.81237133 -66.15526009 34.45008087 C-66.15156212 32.47960162 -66.15471761 30.5090961 -66.16514587 28.53864098 C-66.17827514 25.85322936 -66.16688048 23.16901702 -66.14915466 20.48365784 C-66.15875967 19.69971116 -66.16836468 18.91576449 -66.17826074 18.10806185 C-66.13073848 14.62069659 -65.93730883 12.62649391 -63.81803989 9.79753017 C-60.85651337 7.67228588 -58.13139678 7.01101402 -54.58544922 6.17773438 C-53.89370605 6.01490967 -53.20196289 5.85208496 -52.48925781 5.68432617 C-43.96254478 3.74833209 -35.31448856 2.37753153 -26.64794922 1.24023438 C-25.94927734 1.14307129 -25.25060547 1.0459082 -24.53076172 0.94580078 C-16.38704973 -0.03858454 -8.19112268 0.01853545 0 0 Z M-16.64794922 40.24023438 C-16.67107177 51.56635068 -16.68886385 62.8924614 -16.69976139 74.21859646 C-16.70499041 79.47720101 -16.7120884 84.73578947 -16.72338867 89.99438477 C-16.73421687 95.06476564 -16.74022591 100.135131 -16.74282646 105.20552254 C-16.74468083 107.14450386 -16.74830167 109.08348428 -16.75367928 111.02245903 C-16.76088882 113.72845197 -16.7619402 116.43437993 -16.76147461 119.14038086 C-16.76506989 119.95029984 -16.76866516 120.76021881 -16.77236938 121.59468079 C-17.10785624 125.215293 -17.10785624 125.215293 -15.64794922 128.24023438 C-3.96683286 130.1791082 11.9687203 131.91225396 22.35205078 125.24023438 C29.34222945 118.85789733 31.98605107 109.49729271 32.45205688 100.25730896 C32.49949227 98.10913856 32.51679627 95.96314397 32.52001953 93.81445312 C32.52334793 93.02682083 32.52667633 92.23918854 32.53010559 91.4276886 C32.53514161 89.769588 32.53751495 88.11147738 32.53735352 86.45336914 C32.5395355 83.9453014 32.55771429 81.4376774 32.57666016 78.9296875 C32.82700379 60.97918464 32.82700379 60.97918464 24.74658203 45.48242188 C17.6395176 38.98722392 10.61718599 38.9464315 1.35205078 39.05273438 C-0.24896484 39.05370117 -0.24896484 39.05370117 -1.88232422 39.0546875 C-6.94465575 39.08302145 -11.65386237 39.37258514 -16.64794922 40.24023438 Z " fill="#FFBF22" transform="translate(294.64794921875,111.759765625)"/>
<path d="M0 0 C14.68873005 11.10064332 23.3493871 27.96056055 25.890625 46.04638672 C26.54068584 52.86877521 26.59028172 59.71059629 26.62109375 66.55859375 C26.62744843 67.30453796 26.6338031 68.05048218 26.64035034 68.81903076 C26.65169721 70.9606719 26.6392676 73.10065535 26.6171875 75.2421875 C26.60743896 76.49443115 26.59769043 77.7466748 26.58764648 79.03686523 C26.1418538 82.43970454 25.81622745 83.0945043 23.18359375 85.12109375 C21.29956532 85.49023724 21.29956532 85.49023724 19.14033508 85.4818573 C18.32003815 85.48598129 17.49974121 85.49010529 16.65458679 85.49435425 C15.31023308 85.47817551 15.31023308 85.47817551 13.9387207 85.46166992 C12.99218628 85.462108 12.04565186 85.46254608 11.07043457 85.46299744 C7.93737258 85.46090504 4.80484367 85.43755248 1.671875 85.4140625 C-0.4985983 85.40846816 -2.66907539 85.4041973 -4.83955383 85.40119934 C-10.55578039 85.38973788 -16.27177873 85.36025936 -21.98791504 85.3270874 C-27.81938591 85.29641463 -33.65089361 85.28269997 -39.48242188 85.26757812 C-50.92718367 85.23539103 -62.37177599 85.18417886 -73.81640625 85.12109375 C-73.35981379 87.3709451 -72.89623015 89.61937841 -72.4296875 91.8671875 C-72.17227783 93.11943115 -71.91486816 94.3716748 -71.6496582 95.66186523 C-69.96246912 102.66619635 -66.81942007 106.96516111 -60.81640625 111.12109375 C-54.80060393 113.81535468 -49.99158728 114.54729867 -43.4453125 114.44921875 C-42.56471664 114.44734558 -41.68412079 114.44547241 -40.77684021 114.44354248 C-38.9186523 114.43685211 -37.06047774 114.42299811 -35.20239258 114.40234375 C-32.41799155 114.37152634 -29.63416331 114.36139281 -26.84960938 114.35546875 C-17.00976419 114.31227672 -7.22344503 114.01246083 2.59423828 113.34936523 C13.26680156 112.67062447 13.26680156 112.67062447 17.18359375 113.12109375 C20.56992065 116.50742065 19.52131516 121.24132082 19.5546875 125.81445312 C19.55452637 126.51078857 19.55436523 127.20712402 19.55419922 127.92456055 C19.55857096 130.04752908 19.59487813 132.16841543 19.6328125 134.29101562 C19.63868108 135.6393158 19.6426502 136.98762586 19.64453125 138.3359375 C19.65274902 139.5643335 19.6609668 140.79272949 19.66943359 142.05834961 C19.18359375 145.12109375 19.18359375 145.12109375 17.48193359 146.96289062 C14.94742007 148.24010883 12.73428512 148.88680974 9.94921875 149.4375 C8.91224854 149.6435083 7.87527832 149.8495166 6.80688477 150.06176758 C5.69369873 150.26697021 4.5805127 150.47217285 3.43359375 150.68359375 C1.7009729 151.00783325 1.7009729 151.00783325 -0.06665039 151.33862305 C-11.60222125 153.40576338 -23.1151805 154.57318251 -34.81640625 155.12109375 C-35.6681543 155.16105469 -36.51990234 155.20101562 -37.39746094 155.2421875 C-59.92829392 156.13167952 -82.48841047 152.53476813 -100.5078125 137.94140625 C-113.88543679 125.48285538 -120.94871472 107.9704245 -121.93969727 89.86904907 C-122.11950701 84.74702705 -122.14466935 79.62696253 -122.13208008 74.50219727 C-122.1289236 71.82331451 -122.1524516 69.14554382 -122.17773438 66.46679688 C-122.26079772 44.01420645 -118.03786634 22.90781968 -102.25390625 5.93359375 C-75.7652696 -19.27462542 -29.44672212 -19.64476191 0 0 Z M-66.81640625 32.12109375 C-72.99495311 39.24441841 -73.81640625 46.97698702 -73.81640625 56.12109375 C-56.32640625 56.12109375 -38.83640625 56.12109375 -20.81640625 56.12109375 C-21.75819803 44.81959243 -22.81021582 36.94532531 -30.81640625 29.12109375 C-42.37213705 20.88961428 -56.53874088 23.27524054 -66.81640625 32.12109375 Z " fill="#FFBF22" transform="translate(818.81640625,124.87890625)"/>
<path d="M0 0 C1.13514038 0.00631439 1.13514038 0.00631439 2.29321289 0.01275635 C33.51116988 0.21577992 33.51116988 0.21577992 42.9375 6.5 C43.22966869 9.03046823 43.3338314 11.3129288 43.30078125 13.84375 C43.30152901 14.93109436 43.30152901 14.93109436 43.30229187 16.04040527 C43.29995041 17.57367696 43.29021756 19.10695241 43.27368164 20.64013672 C43.25009124 22.99090845 43.25311921 25.34054629 43.25976562 27.69140625 C43.25418885 29.17969428 43.24707897 30.66797752 43.23828125 32.15625 C43.23919266 32.86148804 43.24010406 33.56672607 43.24104309 34.29333496 C43.16853221 39.26896779 43.16853221 39.26896779 40.9375 41.5 C34.18978168 42.119153 27.30464312 41.49020851 20.5625 41 C2.66420322 39.4383329 2.66420322 39.4383329 -13.875 45.1875 C-23.1441082 54.98627152 -22.41333134 69.36852618 -22.37817383 81.99658203 C-22.37501458 84.3640762 -22.39854966 86.73031559 -22.42382812 89.09765625 C-22.47278995 100.59332279 -22.43511061 112.79755546 -14.60546875 121.98046875 C-8.3873108 128.10417367 -1.18752445 127.6654822 7 127.625 C8.41128174 127.62209961 8.41128174 127.62209961 9.85107422 127.61914062 C15.69856447 127.58285211 21.46025973 127.30754968 27.28125 126.73046875 C31.79855414 126.33852618 36.42085049 126.02243312 40.9375 126.5 C42.9375 128.5 42.9375 128.5 43.16455078 131.75634766 C43.16423382 133.14229295 43.15291759 134.52826301 43.1328125 135.9140625 C43.1299826 136.64370209 43.12715271 137.37334167 43.12423706 138.12509155 C43.11303002 140.45856028 43.0879251 142.79164703 43.0625 145.125 C43.05247085 146.70572363 43.04334489 148.28645327 43.03515625 149.8671875 C43.01308905 153.74493914 42.97855615 157.62240478 42.9375 161.5 C38.28070672 163.93489766 34.04294315 165.2966048 28.875 166.125 C28.12549072 166.24979736 27.37598145 166.37459473 26.60375977 166.50317383 C0.697952 170.66300892 -26.02764294 170.35028374 -48.0625 154.5 C-49.114375 153.7575 -50.16625 153.015 -51.25 152.25 C-66.39528745 137.4412745 -71.20823827 119.17059167 -71.49609375 98.6640625 C-71.51880776 95.05048299 -71.52126558 91.43784699 -71.50854492 87.82421875 C-71.50003478 84.14005618 -71.52887283 80.45744779 -71.56054688 76.7734375 C-71.6260981 55.11118057 -69.19053935 34.99964721 -53.37890625 18.6796875 C-38.01420374 4.22183927 -20.58447827 -0.2851114 0 0 Z " fill="#FFBF22" transform="translate(644.0625,111.5)"/>
<path d="M0 0 C2.02454933 2.92866314 1.76504418 5.90411676 1.73510742 9.33984375 C1.7379776 10.06095337 1.74084778 10.78206299 1.74380493 11.52502441 C1.74584444 13.0481037 1.74032239 14.57120925 1.7277832 16.09423828 C1.71172636 18.42540053 1.72763402 20.75482917 1.74682617 23.0859375 C1.74484372 24.56641008 1.74099999 26.04688157 1.73510742 27.52734375 C1.74118011 28.22428345 1.74725281 28.92122314 1.75350952 29.63928223 C1.7125045 32.46116152 1.64223625 34.46823261 0.07055664 36.86181641 C-2.0122904 38.1492986 -3.36325006 38.36651659 -5.80395508 38.48828125 C-6.62041504 38.54298584 -7.436875 38.59769043 -8.27807617 38.65405273 C-9.58252686 38.73055054 -9.58252686 38.73055054 -10.91333008 38.80859375 C-22.54929663 39.71814653 -32.21415874 42.64710325 -42.66333008 47.93359375 C-42.66571843 48.51320012 -42.66810678 49.09280649 -42.67056751 49.68997669 C-42.72967627 63.78619242 -42.80519965 77.88224 -42.89904499 91.97826862 C-42.94403098 98.79498564 -42.98343903 105.61165008 -43.00976562 112.4284668 C-43.035173 119.00322689 -43.07605866 125.57777171 -43.12651634 132.15239525 C-43.1432415 134.66465547 -43.15472044 137.17695611 -43.16094398 139.6892643 C-43.17052361 143.19975056 -43.19850971 146.70963197 -43.23095703 150.2199707 C-43.22952194 151.26581833 -43.22808685 152.31166595 -43.22660828 153.38920593 C-43.23914642 154.34412933 -43.25168457 155.29905273 -43.26460266 156.28291321 C-43.27151611 157.52871643 -43.27151611 157.52871643 -43.27856922 158.79968739 C-43.75258127 161.42858614 -44.57339729 162.31883795 -46.66333008 163.93359375 C-48.59838867 164.31454468 -48.59838867 164.31454468 -50.81176758 164.32177734 C-52.05821045 164.33596207 -52.05821045 164.33596207 -53.32983398 164.35043335 C-54.2236377 164.34436066 -55.11744141 164.33828796 -56.03833008 164.33203125 C-57.41964111 164.33633652 -57.41964111 164.33633652 -58.82885742 164.34072876 C-60.77564102 164.34277006 -62.7224451 164.33723558 -64.66918945 164.32470703 C-67.65207707 164.30865431 -70.63360969 164.32455347 -73.61645508 164.34375 C-75.50708307 164.34176758 -77.39771023 164.33792393 -79.28833008 164.33203125 C-80.18213379 164.33810394 -81.0759375 164.34417664 -81.99682617 164.35043335 C-82.82778809 164.34097687 -83.65875 164.33152039 -84.51489258 164.32177734 C-85.24530762 164.31939056 -85.97572266 164.31700378 -86.72827148 164.31454468 C-89.33661501 163.80104556 -90.06748351 163.06082722 -91.66333008 160.93359375 C-92.0408535 158.12090302 -92.0408535 158.12090302 -92.04428101 154.63269043 C-92.04896098 153.99112613 -92.05364095 153.34956183 -92.05846274 152.68855619 C-92.07044568 150.53500015 -92.06094323 148.3820766 -92.05151367 146.22851562 C-92.05557793 144.68615853 -92.06091899 143.14380434 -92.06744385 141.60145569 C-92.08114068 137.40934447 -92.07580911 133.2174543 -92.06630659 129.02533913 C-92.05872222 124.64249695 -92.0657522 120.25967396 -92.07046509 115.87683105 C-92.07592621 108.51599726 -92.06872169 101.1552537 -92.05444336 93.79443359 C-92.03811614 85.27891098 -92.0434044 76.76360384 -92.05992258 68.24808645 C-92.0735273 60.94271291 -92.07546208 53.63740431 -92.06760657 46.33202219 C-92.06292446 41.96626153 -92.06231992 37.60060221 -92.07221603 33.23484802 C-92.08086872 29.13081694 -92.07489511 25.02706422 -92.05753326 20.92306328 C-92.0535593 19.41497193 -92.05471799 17.90685723 -92.06132126 16.3987751 C-92.0694914 14.34369724 -92.05927161 12.28951735 -92.04428101 10.23449707 C-92.04314993 9.08338692 -92.04201885 7.93227676 -92.0408535 6.74628448 C-91.66333008 3.93359375 -91.66333008 3.93359375 -90.25808907 2.06317616 C-88.24243621 0.63547076 -87.06534816 0.55910777 -84.60668945 0.5612793 C-83.39027771 0.55193611 -83.39027771 0.55193611 -82.14929199 0.54240417 C-81.27736206 0.55161392 -80.40543213 0.56082367 -79.50708008 0.5703125 C-78.15906311 0.56956474 -78.15906311 0.56956474 -76.78381348 0.56880188 C-74.88409209 0.571142 -72.98436758 0.58086687 -71.0847168 0.59741211 C-68.17444172 0.62100368 -65.26508272 0.61797275 -62.35473633 0.61132812 C-60.50967877 0.61690495 -58.66462509 0.62401485 -56.81958008 0.6328125 C-55.94765015 0.63190109 -55.07572021 0.63098969 -54.17736816 0.63005066 C-53.366427 0.63958267 -52.55548584 0.64911469 -51.7199707 0.65893555 C-50.65099548 0.66584663 -50.65099548 0.66584663 -49.5604248 0.67289734 C-47.66333008 0.93359375 -47.66333008 0.93359375 -44.66333008 2.93359375 C-43.47583008 6.55859375 -43.47583008 6.55859375 -42.66333008 9.93359375 C-42.12708008 9.55847656 -41.59083008 9.18335937 -41.03833008 8.796875 C-31.90769437 2.8349303 -10.91821999 -6.99996843 0 0 Z " fill="#FFBF22" transform="translate(487.663330078125,113.06640625)"/>
<path d="M0 0 C1.24644287 -0.01429802 1.24644287 -0.01429802 2.51806641 -0.02888489 C3.41187012 -0.02797348 4.30567383 -0.02706207 5.2265625 -0.02612305 C6.14743652 -0.03040817 7.06831055 -0.0346933 8.01708984 -0.03910828 C9.96385882 -0.04485068 11.91064926 -0.04535249 13.85742188 -0.04101562 C16.84021457 -0.03785383 19.82201733 -0.06132215 22.8046875 -0.08666992 C24.69531125 -0.08894269 26.58593766 -0.08964652 28.4765625 -0.08862305 C29.37036621 -0.09783279 30.26416992 -0.10704254 31.18505859 -0.11653137 C32.43150146 -0.10718819 32.43150146 -0.10718819 33.703125 -0.09765625 C34.43354004 -0.09828568 35.16395508 -0.0989151 35.91650391 -0.0995636 C38.52814704 0.40550317 39.25520462 1.1462646 40.8515625 3.2746582 C41.22908592 6.08734894 41.22908592 6.08734894 41.23251343 9.57556152 C41.23953339 10.53790797 41.23953339 10.53790797 41.24669516 11.51969576 C41.2586781 13.67325181 41.24917565 15.82617536 41.23974609 17.97973633 C41.24381035 19.52209343 41.24915141 21.06444761 41.25567627 22.60679626 C41.2693731 26.79890749 41.26404153 30.99079765 41.25453901 35.18291283 C41.24695464 39.565755 41.25398462 43.94857799 41.25869751 48.3314209 C41.26415864 55.6922547 41.25695411 63.05299826 41.24267578 70.41381836 C41.22634856 78.92934097 41.23163682 87.44464811 41.248155 95.9601655 C41.26175972 103.26553905 41.2636945 110.57084765 41.25583899 117.87622976 C41.25115688 122.24199042 41.25055234 126.60764974 41.26044846 130.97340393 C41.26910114 135.07743501 41.26312753 139.18118773 41.24576569 143.28518867 C41.24179172 144.79328003 41.24295041 146.30139472 41.24955368 147.80947685 C41.25772383 149.86455471 41.24750403 151.9187346 41.23251343 153.97375488 C41.23138235 155.12486504 41.23025127 156.27597519 41.22908592 157.46196747 C40.8515625 160.2746582 40.8515625 160.2746582 39.44869423 162.14465523 C37.4110047 163.58636175 36.18855562 163.65472015 33.703125 163.6628418 C32.45668213 163.67702652 32.45668213 163.67702652 31.18505859 163.6914978 C30.29125488 163.68542511 29.39745117 163.67935242 28.4765625 163.6730957 C27.09525146 163.67740097 27.09525146 163.67740097 25.68603516 163.68179321 C23.73925156 163.68383451 21.79244748 163.67830004 19.84570312 163.66577148 C16.86281551 163.64971876 13.88128289 163.66561792 10.8984375 163.68481445 C9.0078095 163.68283203 7.11718235 163.67898838 5.2265625 163.6730957 C4.33275879 163.6791684 3.43895508 163.68524109 2.51806641 163.6914978 C1.68710449 163.68204132 0.85614258 163.67258484 0 163.6628418 C-0.73041504 163.66045502 -1.46083008 163.65806824 -2.21337891 163.65560913 C-4.82333371 163.1417928 -5.55284438 162.40473089 -7.1484375 160.2746582 C-7.52596092 157.44355679 -7.52596092 157.44355679 -7.52938843 153.92906189 C-7.5340684 153.28270847 -7.53874837 152.63635506 -7.54357016 151.97041517 C-7.55555352 149.80070719 -7.54605051 147.63162694 -7.53662109 145.46191406 C-7.54068529 143.90808238 -7.54602632 142.35425359 -7.55255127 140.8004303 C-7.56624767 136.577396 -7.560917 132.35458114 -7.55141401 128.13154292 C-7.54383077 123.71753637 -7.55085917 119.3035489 -7.55557251 114.88954163 C-7.56103339 107.47743345 -7.55382914 100.06541489 -7.53955078 92.65332031 C-7.52321759 84.07529427 -7.52851625 75.49748206 -7.54503 66.91946119 C-7.55862824 59.56229916 -7.56057287 52.20520163 -7.55271399 44.8480311 C-7.54802907 40.4504445 -7.54743511 36.05295854 -7.55732346 31.65537834 C-7.56596695 27.52262381 -7.56001951 23.39014601 -7.54264069 19.25742149 C-7.53866203 17.73762218 -7.53983333 16.21779971 -7.54642868 14.69800949 C-7.55458031 12.62944512 -7.54440185 10.5617775 -7.52938843 8.49327087 C-7.52825735 7.33386458 -7.52712627 6.17445829 -7.52596092 4.97991848 C-7.40137819 4.08718259 -7.27679546 3.1944467 -7.1484375 2.2746582 C-4.08700868 0.23370566 -3.45102254 0.02176873 0 0 Z " fill="#FFBF22" transform="translate(512.1484375,113.725341796875)"/>
<path d="M0 0 C1.20673622 0.00427505 1.20673622 0.00427505 2.43785095 0.00863647 C3.35212357 0.00248322 4.26639618 -0.00367004 5.20837402 -0.01000977 C6.19280991 0.00436127 7.17724579 0.0187323 8.19151306 0.03353882 C9.20354294 0.03445526 10.21557281 0.0353717 11.25827026 0.03631592 C13.39760529 0.04235863 15.53693159 0.05812458 17.6761322 0.08285522 C20.95956918 0.11937302 24.24187859 0.12387461 27.52549744 0.12338257 C29.60167911 0.13321295 31.67785311 0.1448696 33.75401306 0.15853882 C35.23370323 0.16187729 35.23370323 0.16187729 36.74328613 0.1652832 C37.65440659 0.17804291 38.56552704 0.19080261 39.5042572 0.20394897 C40.30795242 0.21157257 41.11164764 0.21919617 41.93969727 0.22705078 C43.90635681 0.49447632 43.90635681 0.49447632 45.90635681 2.49447632 C46.10592651 5.05198084 46.18622508 7.49885772 46.17198181 10.05697632 C46.17485199 11.17761475 46.17485199 11.17761475 46.17778015 12.32089233 C46.17914179 13.90121802 46.17544681 15.4815549 46.167099 17.06185913 C46.15639881 19.48496554 46.1669946 21.90733055 46.17979431 24.33041382 C46.17847271 25.86426963 46.17591031 27.39812497 46.17198181 28.93197632 C46.17603027 29.65908813 46.18007874 30.38619995 46.18424988 31.13534546 C46.13628042 36.26455271 46.13628042 36.26455271 43.90635681 38.49447632 C41.93969727 38.76190186 41.93969727 38.76190186 39.5042572 38.78500366 C38.59313675 38.79776337 37.6820163 38.81052307 36.74328613 38.82366943 C35.26359596 38.8270079 35.26359596 38.8270079 33.75401306 38.83041382 C32.74293991 38.83707062 31.73186676 38.84372742 30.69015503 38.85058594 C28.54910607 38.86072345 26.40802545 38.86540262 24.26695251 38.86508179 C20.98541885 38.86945425 17.70523037 38.90576102 14.42393494 38.94369507 C12.34646559 38.94956303 10.26898984 38.95353256 8.19151306 38.95541382 C7.20707718 38.96978485 6.2226413 38.98415588 5.20837402 38.9989624 C4.29410141 38.99280914 3.3798288 38.98665588 2.43785095 38.98031616 C1.63336014 38.9831662 0.82886932 38.98601624 0 38.98895264 C-2.09364319 38.49447632 -2.09364319 38.49447632 -3.8526001 36.66064453 C-5.60104169 33.60884187 -5.48229241 31.18338416 -5.49208069 27.68197632 C-5.49495087 27.03124146 -5.49782104 26.38050659 -5.5007782 25.71005249 C-5.50281375 24.33838019 -5.49731942 22.96667853 -5.48475647 21.59506226 C-5.46869304 19.50097467 -5.48461976 17.40881671 -5.50379944 15.31478882 C-5.50181691 13.97884708 -5.49797304 12.64290653 -5.49208069 11.30697632 C-5.4886969 10.09654663 -5.48531311 8.88611694 -5.48182678 7.63900757 C-5.00564188 3.7816104 -4.05603853 0.95795454 0 0 Z " fill="#FFBF22" transform="translate(508.09364318847656,57.505523681640625)"/>
</svg>
