<?xml version="1.0" encoding="UTF-8"?>
<svg version="1.1" xmlns="http://www.w3.org/2000/svg" width="5747" height="3193">
<path d="M0 0 C2.17693751 -0.00296204 4.35387013 -0.00707151 6.53080511 -0.01150417 C13.36567548 -0.02509803 20.20053427 -0.03481145 27.0354172 -0.03870606 C34.88604212 -0.04320733 42.73649472 -0.06088423 50.58706725 -0.08970666 C56.69193103 -0.1113346 62.79674625 -0.12141046 68.90164793 -0.12274718 C72.5340655 -0.12379174 76.16631925 -0.12962843 79.79869604 -0.1475668 C83.83802732 -0.16713964 87.87699453 -0.16275422 91.91636801 -0.15625668 C93.7040283 -0.17007885 93.7040283 -0.17007885 95.52780294 -0.18418026 C101.66933888 -0.153203 106.27577438 0.11428832 111.65025473 3.20018864 C116.38512103 8.30886018 116.85619386 11.42265884 116.7888751 18.18354702 C116.58022029 22.72427046 115.82325367 27.07846491 114.95372152 31.53344059 C114.77322256 32.50076618 114.5927236 33.46809177 114.40675497 34.46473026 C113.81432567 37.62462507 113.20741651 40.7815262 112.59947348 43.93846989 C112.18005412 46.15028144 111.7612666 48.36221288 111.34308004 50.57425785 C110.46765955 55.19244885 109.58512324 59.80920573 108.69737387 64.42504215 C107.56125948 70.33497865 106.44230393 76.24800981 105.32852602 82.16219139 C104.4677863 86.72308801 103.59839471 91.28230195 102.72634459 95.84104824 C102.31033571 98.02101244 101.89691865 100.20147293 101.48616743 102.38243389 C100.91115592 105.42800757 100.32461653 108.47113973 99.73497152 111.51390934 C99.56809332 112.41013004 99.40121511 113.30635075 99.22927999 114.22972965 C97.80136559 121.48947834 96.03611562 126.88973253 89.65025473 131.20018864 C86.91443364 132.112129 85.26772375 132.33320686 82.44859457 132.35790348 C81.60275808 132.36816563 80.7569216 132.37842777 79.8854537 132.38900089 C78.96994741 132.39630222 78.05444113 132.40360355 77.11119223 132.41112614 C75.14764296 132.43924641 73.18410143 132.46791104 71.22056723 132.49706364 C68.14505306 132.53790195 65.06967522 132.57480225 61.99400473 132.60155582 C32.04936355 132.84124785 32.04936355 132.84124785 5.79869223 145.95409489 C-4.97591485 157.21845683 -11.72691385 173.38666797 -16.32435465 188.06151676 C-16.58156542 188.88178097 -16.83877619 189.70204517 -17.10378122 190.54716587 C-19.79180146 199.33439116 -21.72351488 208.23644988 -23.56849527 217.23143864 C-23.94694393 219.03951328 -24.32624236 220.84741023 -24.70631266 222.65514469 C-25.72123049 227.49459925 -26.72417659 232.33645925 -27.72450113 237.1789484 C-28.78578536 242.30717656 -29.85754239 247.43321692 -30.92787027 252.55956364 C-34.04083149 267.48367432 -37.13500104 282.41167872 -40.22376871 297.34081364 C-41.33405067 302.70649224 -42.44700881 308.0716099 -43.56167459 313.43637943 C-43.98057167 315.4552535 -44.39842009 317.47434545 -44.81518412 319.49366093 C-45.38864037 322.27201691 -45.96547191 325.04965158 -46.54310465 327.82714176 C-46.71238474 328.65163822 -46.88166483 329.47613468 -47.05607462 330.32561588 C-48.23577389 335.97224587 -48.23577389 335.97224587 -49.34974527 338.20018864 C-48.69010481 338.1994292 -48.03046435 338.19866976 -47.35083479 338.1978873 C-8.26194622 338.15313872 30.82693903 338.11881934 69.91584802 338.09805798 C74.60848559 338.09555654 79.3011231 338.0929679 83.99376059 338.09032536 C85.39509996 338.08953842 85.39509996 338.08953842 86.82474922 338.0887356 C101.9549335 338.08003114 117.08510259 338.06426094 132.21527786 338.04588304 C147.73829106 338.02718514 163.2612963 338.01607214 178.78432029 338.01201165 C188.36413639 338.00926637 197.94390956 338.00059311 207.52371245 337.9843557 C214.09144299 337.97379018 220.65915131 337.97058704 227.22688974 337.97318588 C231.0170601 337.97446784 234.80715541 337.97249178 238.59731245 337.96177769 C242.7068517 337.9502456 246.81623094 337.95421085 250.92578268 337.9596796 C252.72199807 337.95094108 252.72199807 337.95094108 254.55450064 337.94202602 C267.9612703 337.99037334 267.9612703 337.99037334 272.51353598 341.73143864 C282.4879647 355.28160595 289.47084101 370.75647344 296.64244223 385.89550114 C299.41904447 391.7469002 302.29593236 397.54267045 305.21275473 403.32518864 C309.42954193 411.69682922 313.50348775 420.12849278 317.52549887 428.59520817 C320.65715281 435.16995739 323.87487676 441.69595795 327.15025473 448.20018864 C331.38711633 456.61372915 335.48333972 465.08602949 339.52525473 473.59471989 C342.65700838 480.16962316 345.87479483 486.69579526 349.15025473 493.20018864 C353.38121399 501.6020083 357.47351084 510.06169504 361.5076766 518.55956364 C365.24292371 526.40519027 369.10699395 534.18182217 373.03502035 541.93261051 C375.40765959 546.63164564 377.64044137 551.33432472 379.65025473 556.20018864 C383.24487403 552.6894653 386.60223842 549.04654507 389.83775473 545.20018864 C390.31551352 544.6340485 390.7932723 544.06790836 391.28550863 543.48461246 C394.89492577 539.17465599 398.3421324 534.76388654 401.74107504 530.285882 C405.10223019 525.87157365 408.57683523 521.55855309 412.08775473 517.26268864 C416.15946878 512.2801496 420.19102348 507.27261395 424.15025473 502.20018864 C428.09210624 497.15165025 432.10056589 492.16261732 436.15025473 487.20018864 C440.67779545 481.65100805 445.14541334 476.06103227 449.55650473 470.41893864 C453.39134021 465.5170185 457.27747814 460.65759545 461.17222738 455.80321598 C464.50513395 451.64434225 467.80516757 447.46134662 471.08775473 443.26268864 C475.59284396 437.50400936 480.19141618 431.82590554 484.81407309 426.16137028 C488.30544173 421.87587425 491.74837306 417.55698445 495.15025473 413.20018864 C499.09220638 408.15172424 503.10062893 403.16267402 507.15025473 398.20018864 C511.23548755 393.19190232 515.28734827 388.16138028 519.27525473 383.07518864 C519.72272055 382.50542301 520.17018637 381.93565739 520.63121176 381.34862614 C522.87868144 378.48124908 525.11019851 375.6028863 527.32212973 372.70800114 C551.53378882 341.17715005 551.53378882 341.17715005 565.83209848 338.63432693 C569.79839304 338.18334477 573.69344862 338.05785927 577.6782546 338.06647587 C578.45728826 338.06421031 579.23632192 338.06194476 580.03896266 338.05961055 C582.63361116 338.05331082 585.22820688 338.05409729 587.82286215 338.05492496 C589.68930265 338.05193111 591.55574253 338.04852806 593.42218161 338.04474735 C598.47972893 338.03592991 603.53725932 338.03357029 608.59481359 338.03293157 C611.75428506 338.03222021 614.91375223 338.03008435 618.07322264 338.02743435 C629.09393859 338.01819104 640.11464245 338.01409852 651.13536215 338.0148859 C661.41294812 338.01548763 671.69048176 338.00491454 681.96805447 337.98914224 C690.79281604 337.97608129 699.61756045 337.97070134 708.44233161 337.97134131 C713.71292848 337.97159657 718.98347875 337.96872981 724.25406599 337.95816326 C729.20594121 337.94850569 734.15772502 337.94838695 739.1096034 337.95567989 C740.92850773 337.9567284 742.74741768 337.95434717 744.56631231 337.94831944 C747.04538536 337.94063452 749.52413989 337.94522081 752.00320578 337.95295048 C752.72605975 337.94780691 753.44891372 337.94266335 754.19367236 337.93736392 C757.79183681 337.96222855 760.70444387 337.99404258 763.65025473 340.20018864 C765.03755604 344.91701311 764.68864343 347.91638013 762.66905355 352.35570621 C760.88311652 355.58905256 758.4928269 358.22185086 756.02525473 360.95018864 C754.93959961 362.18236386 753.85497298 363.41544598 752.77134848 364.64940739 C752.23880453 365.25188297 751.70626059 365.85435856 751.15757895 366.47509098 C749.07580061 368.85763807 747.07855672 371.30388618 745.08775473 373.76268864 C741.8224717 377.78376954 738.50467629 381.75364025 735.15025473 385.70018864 C731.77741884 389.66922407 728.43848827 393.66035885 725.15025473 397.70018864 C719.60833374 404.5043265 713.91716549 411.17994742 708.2342391 417.86620426 C702.74754958 424.3242579 697.31248343 430.8151648 691.96275473 437.38768864 C688.92592702 441.08112774 685.83064517 444.7231735 682.73399496 448.3664484 C679.85480153 451.75972973 677.01821236 455.18286649 674.21275473 458.63768864 C670.25582055 463.50068288 666.18589531 468.25719067 662.09410238 473.00634098 C658.29862106 477.4205063 654.5974756 481.90352062 650.92759848 486.42284489 C648.36821419 489.54415231 645.76431682 492.62468894 643.15025473 495.70018864 C639.77741884 499.66922407 636.43848827 503.66035885 633.15025473 507.70018864 C627.60833374 514.5043265 621.91716549 521.17994742 616.2342391 527.86620426 C610.74754958 534.3242579 605.31248343 540.8151648 599.96275473 547.38768864 C596.92658107 551.08033227 593.83175502 554.72140652 590.73619223 558.36425114 C587.8378065 561.78078404 584.97870372 565.22523701 582.15025473 568.70018864 C576.60833374 575.5043265 570.91716549 582.17994742 565.2342391 588.86620426 C559.74754958 595.3242579 554.31248343 601.8151648 548.96275473 608.38768864 C545.92592702 612.08112774 542.83064517 615.7231735 539.73399496 619.3664484 C536.85480153 622.75972973 534.01821236 626.18286649 531.21275473 629.63768864 C527.25582055 634.50068288 523.18589531 639.25719067 519.09410238 644.00634098 C515.29862106 648.4205063 511.5974756 652.90352062 507.92759848 657.42284489 C505.36821419 660.54415231 502.76431682 663.62468894 500.15025473 666.70018864 C496.77741884 670.66922407 493.43848827 674.66035885 490.15025473 678.70018864 C486.8620071 682.74003572 483.52253798 686.73066946 480.15025473 690.70018864 C476.59333503 694.89588171 473.04111689 699.09499257 469.52525473 703.32518864 C468.8008016 704.19401676 468.07634848 705.06284489 467.32994223 705.95800114 C465.4819175 708.17903597 465.4819175 708.17903597 464.65025473 711.20018864 C465.60346588 713.48926337 466.61234256 715.58520239 467.77916098 717.76268864 C468.11972021 718.41727055 468.46027945 719.07185246 468.81115866 719.74627018 C469.93575085 721.90257116 471.07422561 724.05121863 472.21275473 726.20018864 C472.99937881 727.70260587 473.78501388 729.2055413 474.56968832 730.7089777 C476.16439948 733.76138133 477.76420748 736.81102199 479.36851645 739.85839176 C482.53354156 745.87377203 485.65271028 751.91266511 488.77525473 757.95018864 C489.91424593 760.14567326 491.05357001 762.34098522 492.19322348 764.53612614 C495.83090816 771.54595592 499.46018518 778.56012136 503.08775473 785.57518864 C503.39908346 786.17722111 503.7104122 786.77925358 504.03117514 787.39952946 C505.60724527 790.44729826 507.1832195 793.49511664 508.75914145 796.54296207 C511.57677684 801.99217118 514.39530229 807.44091991 517.21376181 812.8897028 C518.77596268 815.90984583 520.33810578 818.93001875 521.90025473 821.95018864 C522.52525445 823.15852211 523.15025445 824.36685545 523.77525473 825.57518864 C540.02525473 856.9918553 556.27525473 888.40852197 572.52525473 919.82518864 C572.83462469 920.42330357 573.14399466 921.0214185 573.46273947 921.63765812 C574.08779144 922.84609261 574.7128423 924.05452766 575.33789206 925.26296329 C576.89958785 928.28225369 578.46130282 931.30153415 580.02305746 934.32079411 C582.84517648 939.77669777 585.66715393 945.23267442 588.48842001 950.6890192 C594.86919747 963.02945227 601.25347141 975.36804114 607.65025473 987.70018864 C612.15418817 996.38317331 616.65381351 1005.06837055 621.14729452 1013.75676823 C622.08447394 1015.5688451 623.02177888 1017.38085702 623.95909262 1019.19286442 C626.85720871 1024.7960177 629.75399477 1030.39985025 632.64671469 1036.00579166 C633.64281332 1037.93577063 634.63967641 1039.8653534 635.63658285 1041.7949152 C636.92265426 1044.28465856 638.20484235 1046.77634541 639.4842391 1049.26952457 C642.03161059 1054.21819642 644.57808452 1059.14936195 647.36900473 1063.96581364 C651.41343544 1070.95918505 654.56837994 1076.95781002 652.65025473 1085.20018864 C651.29580199 1088.33779704 649.79146446 1090.62958377 646.65025473 1092.20018864 C643.90533524 1092.3068939 641.18529441 1092.35240383 638.43974447 1092.35408878 C637.58063947 1092.35847104 636.72153447 1092.36285329 635.83639598 1092.36736834 C632.94068789 1092.38078579 630.04501024 1092.3869418 627.14927816 1092.39305973 C625.07992556 1092.40095836 623.01057433 1092.40922716 620.94122458 1092.41784 C614.13070639 1092.44408721 607.32018197 1092.45937008 600.50962973 1092.47362614 C598.16766242 1092.47898466 595.82569515 1092.48436216 593.48372793 1092.48975849 C583.74379526 1092.51139094 574.00386426 1092.5301287 564.26391363 1092.54138088 C550.29222776 1092.55762639 536.32081974 1092.59081485 522.34923863 1092.64778173 C512.53262519 1092.68644657 502.71608617 1092.70600947 492.89939857 1092.71130145 C487.03275433 1092.71495955 481.16640625 1092.72702987 475.29984426 1092.75940418 C469.78076501 1092.78942384 464.26216205 1092.79581828 458.74301863 1092.78402042 C456.71692205 1092.78379918 454.69080377 1092.79214601 452.664783 1092.80967426 C449.89884575 1092.83230202 447.1346449 1092.82410078 444.36869955 1092.80819035 C443.56655075 1092.82207243 442.76440195 1092.83595452 441.9379456 1092.85025728 C436.16763196 1092.76845139 433.68931009 1091.33185696 429.65025473 1087.20018864 C419.67085827 1073.03335916 413.05992244 1055.77781086 405.59221029 1040.16802311 C404.21232909 1037.28532046 402.82779418 1034.40486001 401.44322348 1031.52440739 C399.50475647 1027.49033496 397.5688061 1023.45506986 395.63462973 1019.41893864 C392.36017175 1012.59022922 389.06891677 1005.76964913 385.77525473 998.95018864 C385.48277853 998.34461124 385.19030233 997.73903385 384.88896322 997.11510563 C383.40363754 994.03986969 381.91810479 990.96473384 380.43248129 987.88964176 C377.21272741 981.22477324 373.99549833 974.55868545 370.7778182 967.89281559 C369.90458385 966.08380723 369.03133237 964.27480714 368.15806723 962.46581364 C367.86972006 961.8684943 367.58137289 961.27117496 367.28428793 960.65575504 C365.51470556 956.99022681 363.74452178 953.32498965 361.97389364 949.65996647 C360.49082122 946.59013363 359.00797621 943.52019099 357.52525473 940.45018864 C357.08629873 939.54133915 357.08629873 939.54133915 356.63847494 938.61412907 C352.18990516 929.40219886 347.76067469 920.1811162 343.34044027 910.95555973 C340.43923731 904.9073461 337.5219922 898.86714 334.59166098 892.83300114 C334.23984762 892.10838688 333.88803427 891.38377262 333.5255599 890.63720036 C331.80013625 887.08411011 330.07324895 883.53174197 328.34410238 879.98046207 C325.08527254 873.28092752 321.85118314 866.56968859 318.66978598 859.83300114 C318.36554205 859.19554966 318.06129812 858.55809818 317.74783468 857.90132999 C315.65025473 853.43162955 315.65025473 853.43162955 315.65025473 851.20018864 C314.99025473 851.20018864 314.33025473 851.20018864 313.65025473 851.20018864 C313.37495932 851.79009586 313.09966391 852.38000309 312.81602621 852.98778629 C311.70199229 855.10200104 310.51833289 856.76335205 308.99791098 858.59862614 C308.4745516 859.23542301 307.95119223 859.87221989 307.41197348 860.52831364 C306.85123129 861.20378239 306.2904891 861.87925114 305.71275473 862.57518864 C304.5256098 864.01972339 303.33942731 865.46504957 302.15416098 866.91112614 C301.56135336 867.63396793 300.96854574 868.35680973 300.35777426 869.10155582 C297.91525929 872.10353733 295.52903246 875.14762244 293.15025473 878.20018864 C288.66886619 883.94076286 284.09067712 889.59713584 279.48619223 895.23925114 C275.9949539 899.52470482 272.55206585 903.84348317 269.15025473 908.20018864 C265.20830307 913.24865303 261.19988052 918.23770325 257.15025473 923.20018864 C251.22559501 930.46351815 245.41755657 937.81162479 239.65025473 945.20018864 C233.34282228 953.28072069 226.96782503 961.29665004 220.48668051 969.23876286 C216.99518157 973.52430123 213.55220693 977.84330248 210.15025473 982.20018864 C205.66825362 987.94029531 201.09068915 993.5971211 196.48619223 999.23925114 C192.9949539 1003.52470482 189.55206585 1007.84348317 186.15025473 1012.20018864 C181.66825362 1017.94029531 177.09068915 1023.5971211 172.48619223 1029.23925114 C168.99495133 1033.52470797 165.5521994 1037.8435849 162.15025473 1042.20018864 C156.57596095 1049.33516202 150.86914095 1056.35870837 145.14000082 1063.36962223 C143.78727206 1065.03182483 142.44480894 1066.7015259 141.10728598 1068.37596989 C133.29125223 1078.10229071 124.9043384 1088.11549408 112.65025473 1092.20018864 C110.00511696 1092.29599961 107.38656604 1092.33488672 104.74141073 1092.32717228 C103.51968379 1092.32951227 103.51968379 1092.32951227 102.27327549 1092.33189952 C99.53482197 1092.335899 96.79642354 1092.33272395 94.05796957 1092.32958317 C92.09858305 1092.33093765 90.13919678 1092.33271785 88.179811 1092.33489323 C82.85157271 1092.33946133 77.52335373 1092.3376807 72.19511509 1092.33451414 C66.62886104 1092.33198806 61.06260869 1092.33432871 55.49635458 1092.33590031 C46.14986514 1092.33772097 36.80338359 1092.33531807 27.45689535 1092.33055973 C16.63516892 1092.32511413 5.81346132 1092.32688235 -5.00826466 1092.33238614 C-14.28554799 1092.33691641 -23.56282563 1092.33756833 -32.84010971 1092.33494747 C-38.38731707 1092.33338463 -43.93451556 1092.33319118 -49.48172235 1092.33648396 C-54.69370075 1092.33936153 -59.90565474 1092.33738908 -65.11763048 1092.3315897 C-67.03615576 1092.33026162 -68.95468308 1092.33065701 -70.87320757 1092.33285236 C-73.48045613 1092.33556194 -76.08762515 1092.33218516 -78.69486856 1092.32717228 C-79.84887783 1092.33051836 -79.84887783 1092.33051836 -81.02620041 1092.33393204 C-86.23559521 1092.3143387 -86.23559521 1092.3143387 -87.34974527 1091.20018864 C-88.12074759 1085.03217008 -87.08197378 1081.79313789 -83.44740152 1076.80956364 C-79.85579689 1072.34179475 -76.12833775 1067.9971673 -72.36146402 1063.67675114 C-69.79693502 1060.73184515 -67.30738813 1057.73531042 -64.84974527 1054.70018864 C-61.41766514 1050.47226384 -57.90423356 1046.32490973 -54.34974527 1042.20018864 C-50.03040255 1037.18704091 -45.7987725 1032.11481349 -41.62708902 1026.97753239 C-38.60554583 1023.2925972 -35.51938576 1019.66450542 -32.43324137 1016.03368473 C-29.55416684 1012.64045389 -26.71763035 1009.21742144 -23.91224527 1005.76268864 C-19.9553111 1000.8996944 -15.88538586 996.1431866 -11.79359293 991.39403629 C-7.99811161 986.97987097 -4.29696614 982.49685665 -0.62708902 977.97753239 C2.39445417 974.2925972 5.48061424 970.66450542 8.56675863 967.03368473 C11.44583316 963.64045389 14.28236965 960.21742144 17.08775473 956.76268864 C21.0446889 951.8996944 25.11461414 947.1431866 29.20640707 942.39403629 C33.00188839 937.97987097 36.70303386 933.49685665 40.37291098 928.97753239 C43.39445417 925.2925972 46.48061424 921.66450542 49.56675863 918.03368473 C52.44583316 914.64045389 55.28236965 911.21742144 58.08775473 907.76268864 C62.0446889 902.8996944 66.11461414 898.1431866 70.20640707 893.39403629 C74.00188839 888.97987097 77.70303386 884.49685665 81.37291098 879.97753239 C84.39445417 876.2925972 87.48061424 872.66450542 90.56675863 869.03368473 C93.44583316 865.64045389 96.28236965 862.21742144 99.08775473 858.76268864 C103.0446889 853.8996944 107.11461414 849.1431866 111.20640707 844.39403629 C115.00188839 839.97987097 118.70303386 835.49685665 122.37291098 830.97753239 C125.39445417 827.2925972 128.48061424 823.66450542 131.56675863 820.03368473 C134.44583316 816.64045389 137.28236965 813.21742144 140.08775473 809.76268864 C144.0446889 804.8996944 148.11461414 800.1431866 152.20640707 795.39403629 C156.00188839 790.97987097 159.70303386 786.49685665 163.37291098 781.97753239 C166.39445417 778.2925972 169.48061424 774.66450542 172.56675863 771.03368473 C175.44583316 767.64045389 178.28236965 764.21742144 181.08775473 760.76268864 C185.0446889 755.8996944 189.11461414 751.1431866 193.20640707 746.39403629 C197.00188839 741.97987097 200.70303386 737.49685665 204.37291098 732.97753239 C206.93229718 729.85622263 209.53628318 726.77576779 212.15025473 723.70018864 C217.05513207 717.92510494 221.91184304 712.11333155 226.65025473 706.20018864 C227.24837973 705.5414777 227.84650473 704.88276676 228.46275473 704.20409489 C229.89828785 702.24793732 229.89828785 702.24793732 229.35899496 699.86449528 C228.65253796 697.20877181 227.73700568 695.01602084 226.49791098 692.56737614 C226.04996176 691.67663395 225.60201254 690.78589176 225.1404891 689.86815739 C224.66933676 688.9464777 224.19818441 688.02479801 223.71275473 687.07518864 C223.27640707 686.20764957 222.84005941 685.34011051 222.3904891 684.44628239 C219.2969371 678.3285989 216.1081758 672.26250612 212.90806723 666.20018864 C208.12566743 657.13862163 203.4384752 648.03051761 198.77980185 638.90483952 C196.48932655 634.41857132 194.19482044 629.93436577 191.90025473 625.45018864 C191.44636877 624.56308201 190.99248281 623.67597538 190.52484274 622.76198673 C186.69109031 615.27250226 182.83365296 607.79552916 178.96275473 600.32518864 C173.9326196 590.61728249 168.91890115 580.90120354 163.92054892 571.17690372 C162.78279972 568.96485783 161.64337974 566.7536801 160.50352621 564.54271793 C157.03109903 557.80344542 153.57099028 551.05896092 150.16407919 544.28627872 C148.65252315 541.28382472 147.13245393 538.28571989 145.61161947 535.28795719 C144.89988779 533.87920911 144.19225001 532.46838348 143.48918295 531.05529118 C139.32426941 522.68707081 134.80437004 515.301525 128.65025473 508.20018864 C127.97671957 507.32813786 127.30318441 506.45608707 126.6092391 505.55761051 C124.16243078 502.61314626 121.33916325 500.93944707 118.02525473 499.13768864 C117.40134848 498.79262272 116.77744223 498.4475568 116.13462973 498.09203434 C99.19353628 488.87857187 81.60868097 487.03652597 62.58360434 487.08666325 C61.07490685 487.08694575 59.56620922 487.08678615 58.05751181 487.08622074 C53.98584836 487.08593524 49.9142147 487.09179187 45.84255815 487.0987947 C41.57847179 487.10506953 37.31438466 487.10563529 33.0502944 487.10682011 C24.98637182 487.10992128 16.9224629 487.11811825 8.85854632 487.1281696 C-0.32649181 487.13936851 -9.5115306 487.14485069 -18.69657385 487.14986503 C-37.58097205 487.16030192 -56.46535756 487.17787777 -75.34974527 487.20018864 C-75.48093539 487.9069225 -75.61212551 488.61365637 -75.74729109 489.34180641 C-75.93563237 490.35641913 -76.12397366 491.37103186 -76.31802225 492.41639042 C-76.53398208 493.57978695 -76.7499419 494.74318348 -76.97244596 495.94183445 C-77.47196712 498.6328033 -77.97148839 501.32377213 -78.47100973 504.01474094 C-79.78194373 511.0768673 -81.09287696 518.1389938 -82.40380752 525.20112079 C-83.20064635 529.49377891 -83.99748572 533.78643692 -84.79432535 538.07909489 C-84.9589451 538.96591863 -85.12356485 539.85274237 -85.29317307 540.76643956 C-87.55688178 552.96126907 -89.8206119 565.1560946 -92.08435965 577.35091686 C-93.89678721 587.11447484 -95.70920567 596.87803451 -97.52162027 606.64159489 C-97.70515944 607.63032801 -97.8886986 608.61906114 -98.07779956 609.63775587 C-102.95198585 635.89521831 -107.82587206 662.15273641 -112.69929111 688.41034126 C-115.52920135 703.65766267 -118.35924104 718.90496004 -121.18931913 734.15225029 C-121.66356131 736.70727894 -122.1377992 739.26230839 -122.61203623 741.81733799 C-130.08296096 782.06805177 -137.55650709 822.3182771 -145.03587008 862.56742382 C-145.96671595 867.57666302 -146.89749266 872.58591508 -147.82824582 877.59517151 C-148.75636351 882.59022485 -149.6845155 887.58527182 -150.61268473 892.58031559 C-150.79614329 893.56761831 -150.97960184 894.55492102 -151.16861975 895.572142 C-153.54489569 908.36005032 -155.92232998 921.14774268 -158.30080748 933.9352417 C-160.05853071 943.38543887 -161.81565646 952.83574708 -163.57240152 962.28612614 C-163.74224896 963.19977916 -163.9120964 964.11343218 -164.08709073 965.05477166 C-168.39481274 988.22851927 -172.68334432 1011.40562907 -176.93209887 1034.59026241 C-177.64554633 1038.48288745 -178.36036101 1042.37526067 -179.07543802 1046.26758671 C-179.30216857 1047.50183352 -179.52889912 1048.73608034 -179.76250029 1050.00772858 C-180.20580794 1052.42087098 -180.64915558 1054.83400605 -181.09254599 1057.24713326 C-182.11554978 1062.81835399 -183.1353214 1068.39012221 -184.14671183 1073.96346378 C-187.61588358 1093.07817223 -191.14395629 1112.14710684 -195.60365152 1131.05956364 C-195.8423616 1132.07351169 -195.8423616 1132.07351169 -196.08589411 1133.10794353 C-207.24796972 1180.16618886 -225.63084567 1225.75211469 -259.34974527 1261.20018864 C-260.14807779 1262.0473444 -260.14807779 1262.0473444 -260.96253824 1262.91161442 C-297.3068444 1301.2543023 -344.90750342 1314.54965251 -395.84974527 1321.38768864 C-396.9847648 1321.54261784 -398.11978434 1321.69754704 -399.2891984 1321.85717106 C-403.30394088 1322.36734551 -407.32264528 1322.80245735 -411.34974527 1323.20018864 C-412.22447489 1323.28845921 -413.0992045 1323.37672977 -414.00044107 1323.46767521 C-436.11266794 1325.60204109 -458.24550821 1325.54261844 -480.43910074 1325.51586246 C-485.73345475 1325.50998008 -491.02746878 1325.52726583 -496.32176638 1325.55020714 C-500.43787016 1325.56491678 -504.55389041 1325.56582173 -508.67001581 1325.56269741 C-510.6244067 1325.56320863 -512.57880251 1325.56840874 -514.53316736 1325.57850933 C-517.24488279 1325.59084843 -519.95591196 1325.58410552 -522.66761637 1325.57250309 C-523.85967691 1325.5839687 -523.85967691 1325.5839687 -525.07581949 1325.59566593 C-529.89503647 1325.55010164 -533.16249697 1324.83443876 -537.34974527 1322.20018864 C-541.47157964 1317.63275055 -542.58068081 1315.05930454 -542.50418711 1308.8683157 C-542.21838726 1303.93085614 -541.29040492 1299.11546769 -540.39369059 1294.25804996 C-540.1855372 1293.09594501 -539.97738382 1291.93384007 -539.76292276 1290.73651981 C-539.07622544 1286.91686247 -538.37771072 1283.09948943 -537.67787027 1279.28221989 C-537.31588101 1277.29274161 -536.95477672 1275.30310394 -536.5937016 1273.31345958 C-535.46002411 1267.06801165 -534.3176237 1260.82420175 -533.17005777 1254.58129215 C-531.98879074 1248.15400478 -530.82387016 1241.72390177 -529.6666429 1235.29224664 C-528.66945282 1229.75385295 -527.66139408 1224.2175104 -526.64482427 1218.68264121 C-526.0391059 1215.38384746 -525.43893345 1212.08430164 -524.8469758 1208.78299236 C-524.18577439 1205.10411658 -523.50685446 1201.42893687 -522.82337809 1197.75414371 C-522.53637537 1196.12457737 -522.53637537 1196.12457737 -522.24357462 1194.46209049 C-520.96074248 1187.6987042 -519.60571554 1182.85193275 -514.09876871 1178.36693668 C-510.52940722 1176.85201852 -507.18594715 1176.64311874 -503.36537027 1176.53221989 C-502.58220438 1176.49909199 -501.79903849 1176.46596409 -500.99214029 1176.43183231 C-494.96270406 1176.19751415 -488.92974826 1176.10659899 -482.89662027 1176.02440739 C-482.01276651 1176.01225193 -481.12891275 1176.00009647 -480.21827555 1175.98757267 C-472.92353293 1175.89172825 -472.92353293 1175.89172825 -469.36146402 1175.8742609 C-451.43697888 1175.77008605 -436.27614174 1173.60666703 -422.53724527 1160.88768864 C-402.94055444 1139.61128145 -401.32539998 1102.39687966 -396.39882731 1075.18049622 C-395.62842788 1070.93085065 -394.85229587 1066.68225161 -394.07684183 1062.43352604 C-392.73856111 1055.09707518 -391.40356646 1047.76003294 -390.07084513 1040.42257023 C-387.94127731 1028.69850772 -385.80465505 1016.97573625 -383.66688395 1005.25316715 C-382.93362965 1001.23197702 -382.20040763 997.210781 -381.46719217 993.18958378 C-381.28453804 992.18788471 -381.10188391 991.18618565 -380.9136948 990.15413207 C-379.60711923 982.98829299 -378.30143241 975.8222923 -376.99609232 968.65622807 C-370.06219018 930.59290223 -363.08793968 892.53702885 -356.10234487 854.48316061 C-354.48855765 845.69193117 -352.87550593 836.90056682 -351.26249194 828.10919547 C-345.22261189 795.19043657 -339.17960499 762.27225172 -333.13588572 729.3541975 C-319.69425798 656.1422189 -306.26268907 582.92840525 -292.84859633 509.71137589 C-291.46923164 502.18262984 -290.08958137 494.65393616 -288.70979166 487.12526798 C-287.01983214 477.90415625 -285.33041761 468.68294483 -283.64150649 459.46164101 C-282.72455849 454.45536724 -281.80732177 449.44914671 -280.88943148 444.44304562 C-277.09491829 423.74755531 -273.31477144 403.04972607 -269.5909965 382.34137702 C-262.67032157 343.85838735 -255.69913101 305.43028792 -247.38789225 267.21770573 C-245.72474123 259.55463728 -244.08849976 251.88573021 -242.44836283 244.21770954 C-242.05094389 242.36136095 -241.65281703 240.50516375 -241.25393534 238.64912891 C-238.21502066 224.50736699 -235.35706402 210.33799951 -232.6984849 196.11968327 C-221.35411542 135.88931397 -195.9885735 71.21645462 -143.91224527 34.70018864 C-128.55096818 24.28503807 -112.11201191 16.50484753 -94.34974527 11.20018864 C-93.01653238 10.80041813 -93.01653238 10.80041813 -91.6563859 10.39257145 C-80.55478319 7.13594419 -69.40329546 4.68527818 -57.97474527 2.88768864 C-56.96653727 2.72824772 -55.95832926 2.5688068 -54.91956949 2.40453434 C-36.72311145 -0.25296352 -18.34290282 0.02373402 0 0 Z " fill="#2CB5E8" transform="translate(3809.34974527359,933.7998113632202)"/>
<path d="M0 0 C1.57149811 -0.0080365 1.57149811 -0.0080365 3.17474365 -0.01623535 C23.04953975 -0.093662 42.97882062 0.8199972 62.625 4 C63.68638184 4.16918945 64.74776367 4.33837891 65.84130859 4.51269531 C100.90532317 10.34202949 136.50086619 21.27438555 165.625 42.25 C166.63949219 42.96414063 167.65398437 43.67828125 168.69921875 44.4140625 C176.17397933 49.8311105 182.96903723 55.8752751 189.625 62.25 C190.18477539 62.77722656 190.74455078 63.30445313 191.32128906 63.84765625 C234.30202191 104.4525697 254.89233907 166.20908204 256.72368622 224.38493538 C256.76755406 227.72119793 256.78291216 231.05627335 256.78613281 234.39282227 C256.79109772 235.64842957 256.79606262 236.90403687 256.80117798 238.19769287 C256.81318728 241.60985891 256.82071992 245.02196444 256.82518864 248.43414426 C256.82814633 250.58189661 256.83225605 252.72964395 256.83669281 254.87739372 C256.85033775 261.64291083 256.86001575 268.40841607 256.8638947 275.17394596 C256.86835073 282.89707232 256.88579614 290.62001953 256.9148953 298.34309155 C256.9367789 304.3674883 256.94661313 310.3918357 256.94793582 316.41627163 C256.94896623 319.98792303 256.95448212 323.55940553 256.97275543 327.13101387 C257.2383858 382.2699057 246.97635625 440.79429052 213.625 486.25 C213.23989258 486.7749707 212.85478516 487.29994141 212.45800781 487.84082031 C207.48612704 494.57119341 202.25612479 500.95489971 196.578125 507.109375 C194.99597392 508.84341258 193.51553119 510.59699382 192.0625 512.4375 C188.87429106 516.11620262 185.37628109 519.1565265 181.625 522.25 C180.10712891 523.50683594 180.10712891 523.50683594 178.55859375 524.7890625 C165.33182632 535.55660104 151.06606557 544.05591267 135.625 551.25 C133.95244141 552.03310547 133.95244141 552.03310547 132.24609375 552.83203125 C93.34042447 570.24082541 50.31136364 575.46360596 8.0625 575.5625 C6.95039154 575.56545074 5.83828308 575.56840149 4.69247437 575.57144165 C-22.43809001 575.58766068 -49.12090206 573.06038114 -76.01098633 569.67700195 C-77.10976357 569.53918556 -78.2085408 569.40136917 -79.34061432 569.25937653 C-82.01880268 568.923391 -84.69692954 568.58692374 -87.375 568.25 C-87.37858253 569.65640338 -87.37858253 569.65640338 -87.38223743 571.09121895 C-87.44102128 593.9008328 -87.51689722 616.71034094 -87.61071491 639.51983833 C-87.65568832 650.55032522 -87.69509945 661.5807797 -87.72143555 672.61132812 C-87.74440307 682.22509269 -87.77778722 691.83875486 -87.82370156 701.45243824 C-87.84765051 706.54322957 -87.86636835 711.63391938 -87.87261391 716.72476578 C-87.87865715 721.51659242 -87.89862963 726.30815925 -87.92927551 731.09988976 C-87.9380679 732.85826375 -87.94177583 734.61667167 -87.94000816 736.37506676 C-87.93835571 738.77737324 -87.95505164 741.17888744 -87.97627258 743.58108521 C-87.96900122 744.62293494 -87.96900122 744.62293494 -87.96158296 745.68583214 C-88.04642999 751.51251988 -89.60353415 755.50218086 -93.75035095 759.59364319 C-99.23517297 762.10004372 -104.40694117 761.79846351 -110.36938477 761.75170898 C-111.67896149 761.75711197 -112.98853821 761.76251495 -114.33779907 761.76808167 C-117.91841344 761.78200879 -121.49854582 761.77088688 -125.07913327 761.75437045 C-128.83107431 761.7404903 -132.58298821 761.74698329 -136.33494568 761.75050354 C-142.63377627 761.753203 -148.932416 761.73975182 -155.23120117 761.71655273 C-162.50901549 761.689933 -169.78651101 761.68820049 -177.06435734 761.6999411 C-184.07283763 761.7107266 -191.08120283 761.70452653 -198.089674 761.69038582 C-201.06924097 761.68463385 -204.04872351 761.68470243 -207.0282917 761.68945122 C-211.18904046 761.69511717 -215.34931451 761.67588739 -219.51000977 761.65405273 C-221.36243034 761.66080521 -221.36243034 761.66080521 -223.25227356 761.66769409 C-224.38638672 761.65778946 -225.52049988 761.64788483 -226.6889801 761.63768005 C-227.67211465 761.63525016 -228.6552492 761.63282026 -229.6681757 761.63031673 C-234.69205681 760.92444674 -238.14560812 758.15314006 -241.30668137 754.24313088 C-243.58009967 750.00168073 -243.0500257 745.13796631 -242.99861908 740.44293308 C-243.00528709 739.23936188 -243.0119551 738.03579067 -243.01882517 736.79574761 C-243.03229162 733.44764906 -243.02330061 730.10096144 -243.00493505 726.7529753 C-242.99046598 723.11356244 -243.00497397 719.47424733 -243.01582003 715.83483785 C-243.03081525 709.45396103 -243.02717736 703.07330426 -243.01140213 696.6924324 C-242.98800851 687.20396164 -242.99317521 677.7156571 -243.00411103 668.22717153 C-243.02271463 651.28209838 -243.01297087 634.33713023 -242.99163339 617.39206565 C-242.97309157 602.56272965 -242.96465344 587.73342895 -242.96620178 572.90408134 C-242.96629346 571.92120344 -242.96638513 570.93832554 -242.96647959 569.92566346 C-242.96687273 565.93603743 -242.96732235 561.94641141 -242.96785098 557.9567854 C-242.9727245 520.51412909 -242.95004401 483.07153541 -242.91389475 445.62889856 C-242.88190285 412.35032371 -242.8698506 379.07180236 -242.87597656 345.79321289 C-242.87636341 343.65661421 -242.87674986 341.52001552 -242.87713593 339.38341684 C-242.87732728 338.32713245 -242.87751862 337.27084807 -242.87771577 336.18255506 C-242.87867008 330.86555695 -242.87958445 325.54855883 -242.88045502 320.23156071 C-242.88062881 319.18263972 -242.8808026 318.13371872 -242.88098167 317.05301225 C-242.8853353 289.26133674 -242.87532576 261.46966703 -242.86061716 233.67799562 C-242.86009702 232.68955245 -242.85957688 231.70110929 -242.85904097 230.68271329 C-242.85852163 229.69605598 -242.85800229 228.70939866 -242.8574672 227.69284264 C-242.85694946 226.70797122 -242.85643172 225.72309979 -242.85589829 224.70838378 C-242.8548502 222.72490886 -242.85378999 220.74143394 -242.85271757 218.75795903 C-242.84533169 204.9198797 -242.84324973 191.08180854 -242.84471158 177.24372748 C-242.84655597 159.41142223 -242.83851384 141.57916743 -242.81307012 123.74687869 C-242.79988935 114.31237466 -242.7949034 104.87795117 -242.80170866 95.4434399 C-242.8054131 89.14592778 -242.79824165 82.84848933 -242.78211627 76.5509969 C-242.77321985 72.95995557 -242.76907539 69.36908025 -242.77804345 65.77803529 C-242.78757273 61.9128942 -242.77401773 58.04803275 -242.75811005 54.18290806 C-242.76456185 53.06392698 -242.77101365 51.94494589 -242.77766097 50.79205629 C-242.7275099 44.34162089 -242.52682772 38.50274831 -237.7890625 33.61328125 C-176.52803025 -2.36754337 -69.07607577 0.19552108 0 0 Z M-56.5 122.6875 C-57.23959961 122.74894196 -57.97919922 122.81038391 -58.74121094 122.87368774 C-68.67642828 123.70979658 -78.47360068 124.92981342 -88.375 126.25 C-88.375 233.17 -88.375 340.09 -88.375 450.25 C-80.50016978 451.46151234 -72.80252747 452.60497263 -64.89453125 453.28515625 C-63.95679367 453.36873886 -63.01905609 453.45232147 -62.05290222 453.53843689 C-60.08777377 453.71262344 -58.1224639 453.88477483 -56.15698242 454.05493164 C-53.21027135 454.31052485 -50.26431037 454.5736963 -47.31835938 454.83789062 C12.54994338 461.16119601 12.54994338 461.16119601 66.19921875 438.421875 C93.01337456 415.2504259 100.63117238 381.77104456 103.16210938 347.76660156 C103.8727693 337.29516136 103.78932589 326.80683904 103.79296875 316.31640625 C103.79619249 314.10847453 103.79955734 311.900543 103.80305481 309.69261169 C103.80901033 305.08095811 103.81089852 300.46932317 103.81030273 295.85766602 C103.81020155 290.01886555 103.82382479 284.18018788 103.84107494 278.34141636 C103.85233015 273.78278583 103.85421782 269.22418368 103.85369301 264.6655407 C103.85485401 262.51669837 103.85916647 260.36785483 103.86702538 258.21902657 C103.99529777 219.5132569 101.82533423 174.11517358 73.109375 144.69482422 C52.92804888 125.05122422 26.20446786 120.00907998 -1.13989258 120.20556641 C-19.64421826 120.45971985 -38.05702222 121.1357885 -56.5 122.6875 Z " fill="#FFFFFF" transform="translate(1415.375,1263.75)"/>
<path d="M0 0 C0.84677307 -0.00067474 1.69354614 -0.00134949 2.565979 -0.00204468 C48.38775491 0.05536265 92.94100733 8.51895952 133.5625 30.25 C134.71878906 30.86359375 135.87507813 31.4771875 137.06640625 32.109375 C152.59185462 40.65808605 166.55639854 51.24729152 179.5625 63.25 C180.32385254 63.95141113 180.32385254 63.95141113 181.10058594 64.66699219 C188.81662287 71.86482651 195.26392866 79.8295859 201.5625 88.25 C201.98917969 88.81058105 202.41585937 89.37116211 202.85546875 89.94873047 C243.04375159 142.88906459 251.19082047 209.60641192 250.95361328 274.09277344 C250.93622351 278.87019864 250.94660415 283.64712896 250.96433067 288.42453766 C250.97516709 292.15295159 250.97172792 295.88124745 250.9639473 299.60966492 C250.96196025 301.37342897 250.96435139 303.13720406 250.97138596 304.9009552 C250.97903141 307.346372 250.96736715 309.7909721 250.95068359 312.23632812 C250.95979263 313.30371719 250.95979263 313.30371719 250.96908569 314.39266968 C250.90510252 319.47240007 250.0166991 322.8766111 247.5625 327.25 C243.84059138 330.039221 241.16457436 330.62415834 236.559268 330.61914349 C235.34754128 330.62511663 234.13581457 330.63108978 232.88736886 330.63724393 C231.54614191 330.62868542 230.20491672 330.61984864 228.86369324 330.61076355 C227.43632009 330.61207185 226.00894764 330.61469872 224.58157903 330.61853105 C220.65924058 330.62524323 216.73714761 330.61323336 212.81484044 330.59819686 C208.58516835 330.5852513 204.3555103 330.58962491 200.12582397 330.59190369 C192.79760135 330.59347736 185.46945881 330.58405835 178.14125633 330.56719017 C167.54589573 330.54281746 156.95057388 330.53499667 146.35518829 330.5312262 C129.16523703 330.524659 111.97532847 330.50469055 94.78540039 330.47631836 C78.08618381 330.44878474 61.38697883 330.42754774 44.68774414 330.41479492 C43.65854428 330.41400675 42.62934443 330.41321858 41.5689567 330.41240653 C36.40580536 330.40849144 31.24265394 330.40470031 26.07950246 330.40097082 C-16.75952793 330.36986656 -59.59851176 330.31702345 -102.4375 330.25 C-102.19001764 334.45929525 -101.93576774 338.66811565 -101.67570496 342.87664795 C-101.58845266 344.30321646 -101.50293162 345.72989211 -101.41929626 347.15667725 C-99.64820717 377.290994 -92.37797236 405.30952764 -70.4375 427.25 C-66.63589933 430.5976782 -62.67567366 433.48070889 -58.4375 436.25 C-56.83455078 437.29800781 -56.83455078 437.29800781 -55.19921875 438.3671875 C-32.59669848 452.18418374 -6.86892105 454.45763341 19.046875 454.39453125 C19.93531853 454.39358774 20.82376205 454.39264423 21.73912811 454.39167213 C41.843069 454.36051953 61.92047763 453.76905012 82.00952911 453.0388298 C84.86604844 452.93556418 87.72264954 452.83490147 90.57928467 452.7348938 C113.79256024 451.91983904 136.99699152 451.01176912 160.1875 449.6875 C161.71969177 449.60065445 161.71969177 449.60065445 163.28283691 449.51205444 C174.62997545 448.85735806 185.94585094 448.00623371 197.25979614 446.91551208 C215.61536031 445.155738 215.61536031 445.155738 221.5625 449.25 C224.24270392 451.63240349 225.41787608 452.81612823 226.5625 456.25 C226.67406098 458.90511664 226.7301511 461.53468191 226.73950195 464.19042969 C226.74607315 464.99892365 226.75264435 465.8074176 226.75941467 466.64041138 C226.77913391 469.31756688 226.79080767 471.99466629 226.80078125 474.671875 C226.80485678 475.58712196 226.8089323 476.50236893 226.81313133 477.44535065 C226.83398696 482.29038772 226.84829045 487.13539651 226.85766602 491.98046875 C226.86872483 496.97844592 226.90312008 501.97597718 226.94283772 506.97379684 C226.96901558 510.82233493 226.97735893 514.670767 226.98094749 518.51938629 C226.98581101 520.36133076 226.99741833 522.20327056 227.01598549 524.04512787 C227.04040042 526.62777266 227.03940777 529.20926671 227.0324707 531.79199219 C227.05168579 532.92536514 227.05168579 532.92536514 227.07128906 534.08163452 C227.01797511 539.54888571 225.64879323 542.72460132 222.5625 547.25 C218.26634097 550.8825732 212.70009868 551.57003931 207.32421875 552.703125 C206.30784836 552.92421432 205.29147797 553.14530365 204.24430847 553.37309265 C200.91510523 554.0929651 197.58294072 554.79764855 194.25 555.5 C193.10847473 555.74299835 191.96694946 555.9859967 190.79083252 556.23635864 C149.67014565 564.9798509 108.5858142 571.86121033 66.5625 574.25 C65.88519836 574.29203552 65.20789673 574.33407104 64.5100708 574.37738037 C48.34325626 575.36873113 32.17265302 575.47026586 15.98144531 575.49023438 C12.96276723 575.49461174 9.94437611 575.50851013 6.92578125 575.53125 C-17.73371613 575.7128703 -41.8781512 574.40128155 -66.125 569.5 C-67.4155127 569.24250977 -68.70602539 568.98501953 -70.03564453 568.71972656 C-113.33183989 559.90131618 -153.2206175 541.79884864 -185.4375 511.25 C-185.94861328 510.77675293 -186.45972656 510.30350586 -186.98632812 509.81591797 C-226.83749834 472.75244767 -246.70999561 419.37970484 -252.4375 366.25 C-252.56922419 365.03568424 -252.56922419 365.03568424 -252.70360947 363.79683685 C-253.40576129 356.77486141 -253.59150057 349.82536795 -253.59863281 342.77148438 C-253.60359772 341.57454453 -253.60856262 340.37760468 -253.61367798 339.14439392 C-253.62569395 335.88919815 -253.6332221 332.63403808 -253.63768864 329.37882423 C-253.6406457 327.32940535 -253.64475539 325.27999174 -253.64919281 323.23057556 C-253.662842 316.77367004 -253.67251715 310.31677696 -253.6763947 303.85985804 C-253.68084757 296.49159097 -253.69827605 289.12351198 -253.7273953 281.75530195 C-253.74929575 276.00693142 -253.75911403 270.25861262 -253.76043582 264.51020098 C-253.76146536 261.10281386 -253.76850357 257.69574236 -253.78525543 254.28837585 C-253.88933193 231.47432537 -252.59148602 208.84187926 -247.6875 186.5 C-247.42928467 185.30012451 -247.17106934 184.10024902 -246.9050293 182.86401367 C-236.64165785 136.52668975 -214.61937995 90.100183 -177.4375 59.25 C-176.6021875 58.51523438 -175.766875 57.78046875 -174.90625 57.0234375 C-126.74768411 15.34775548 -62.39673319 0.04519393 0 0 Z M-65.4375 137.25 C-66.20191406 137.85199219 -66.96632813 138.45398437 -67.75390625 139.07421875 C-88.83608552 156.56326138 -97.20593375 183.11385551 -101.4375 209.25 C-102.52434802 221.20532821 -102.4375 233.24537126 -102.4375 245.25 C-35.4475 245.25 31.5425 245.25 100.5625 245.25 C100.5625 211.56402591 100.16342131 175.04160381 76.5625 148.25 C75.92054688 147.45464844 75.27859375 146.65929688 74.6171875 145.83984375 C59.78192876 128.13059577 37.19155907 118.26873132 14.44189453 116.04248047 C-14.26898482 113.56070273 -42.68058737 118.55023549 -65.4375 137.25 Z " fill="#FFFFFF" transform="translate(3078.4375,1263.75)"/>
<path d="M0 0 C1.55859741 0.00090637 1.55859741 0.00090637 3.14868164 0.00183105 C21.06975996 0.03002399 38.83670782 0.49617143 56.6875 2.1875 C57.8842334 2.3004541 59.0809668 2.4134082 60.31396484 2.52978516 C77.57355888 4.26154026 94.50255617 7.35755567 111.5 10.75 C112.48157074 10.94554474 113.46314148 11.14108948 114.47445679 11.34255981 C117.30350479 11.90997202 120.13061115 12.48605718 122.95703125 13.06640625 C123.79130646 13.2351123 124.62558167 13.40381836 125.48513794 13.57763672 C143.30223797 17.29480414 143.30223797 17.29480414 147.6875 23.1875 C149.7836027 28.15884018 149.97876126 32.53931955 149.9621582 37.83569336 C149.9698246 39.10761284 149.9698246 39.10761284 149.97764587 40.40522766 C149.99149612 43.1960057 149.99058862 45.98653552 149.98828125 48.77734375 C149.99217053 50.7249816 149.99650567 52.6726186 150.00126648 54.62025452 C150.00871875 58.69795484 150.00844448 62.77556856 150.00317383 66.85327148 C149.99737882 72.06969477 150.01431585 77.28576304 150.0375185 82.50212765 C150.05227443 86.52309733 150.05312503 90.54398187 150.05000877 94.56497383 C150.05052099 96.48783636 150.05574002 98.41070379 150.06582069 100.33353996 C150.07820461 103.02589653 150.07138191 105.71756593 150.05981445 108.40991211 C150.06745819 109.1981839 150.07510193 109.98645569 150.08297729 110.7986145 C150.02010501 117.44407476 148.62597947 122.11237305 143.96875 127.09790039 C139.99560925 129.62811703 137.86703451 129.76588988 133.1875 129.62109375 C132.45684326 129.60203476 131.72618652 129.58297577 130.97338867 129.56333923 C121.18500171 129.23051004 111.42890827 128.21797116 101.6875 127.25 C82.88028084 125.41660197 64.19651036 124.12442864 45.30395508 123.68481445 C42.75525992 123.62512319 40.20674681 123.55995211 37.65820312 123.49414062 C-9.08904948 121.74028877 -9.08904948 121.74028877 -49.625 142.5 C-75.15834644 166.80471133 -82.50081227 202.73584988 -83.58706665 236.79507446 C-83.72144307 243.57839746 -83.70450319 250.36027085 -83.67578125 257.14453125 C-83.67526023 259.63539123 -83.67578724 262.12625162 -83.67729187 264.61711121 C-83.67720312 269.78769223 -83.66697289 274.95811418 -83.64868164 280.12866211 C-83.62593855 286.6949896 -83.62547215 293.261087 -83.63219929 299.82744312 C-83.63556833 304.95383179 -83.62885536 310.08016971 -83.61907005 315.20654869 C-83.61527269 317.62580791 -83.6140466 320.04507282 -83.6156559 322.46433449 C-83.61984678 360.10156475 -80.35335211 402.12133846 -52.78320312 430.74902344 C-36.52140923 446.6544832 -13.66988257 452.32019726 8.53125 452.35546875 C9.36075165 452.35970352 10.1902533 452.36393829 11.04489136 452.36830139 C13.75914551 452.37821454 16.47323078 452.3782038 19.1875 452.375 C20.13200012 452.37439575 21.07650024 452.3737915 22.04962158 452.37316895 C52.78935444 452.32036813 83.30250354 450.46051792 113.89404297 447.50878906 C114.80818466 447.42180756 115.72232635 447.33482605 116.66416931 447.24520874 C118.35662141 447.08327319 120.04869804 446.91733229 121.74024963 446.74624634 C138.96099424 445.09713875 138.96099424 445.09713875 144.6875 449.1875 C149.15678686 454.98549376 149.83869215 459.3714259 149.84863281 466.49511719 C149.85359772 467.34262543 149.85856262 468.19013367 149.86367798 469.06332397 C149.87829608 471.87034922 149.88510164 474.67731792 149.890625 477.484375 C149.89637751 479.43629966 149.90213523 481.3882243 149.90789795 483.34014893 C149.91840747 487.435753 149.9242502 491.53133746 149.92773438 495.62695312 C149.93321366 500.86697985 149.95722986 506.10674602 149.98570633 511.34669113 C150.00436107 515.38052113 150.00953986 519.41428878 150.01107025 523.44815826 C150.01409178 525.37940136 150.02210341 527.3106435 150.03525543 529.24184418 C150.05237234 531.9488638 150.05042174 534.65525242 150.04394531 537.36230469 C150.0531601 538.15528961 150.06237488 538.94827454 150.0718689 539.76528931 C150.02265113 546.35575342 148.7006823 551.07096855 144.02905273 555.98242188 C140.40604642 558.70574428 136.60512464 559.58247431 132.22265625 560.46875 C131.4049173 560.64808578 130.58717834 560.82742157 129.74465942 561.01219177 C127.08341225 561.58951089 124.41745727 562.13965184 121.75 562.6875 C119.89808319 563.0796396 118.04627743 563.47230394 116.19458008 563.86547852 C93.91015751 568.54457745 71.42541649 572.57957919 48.6875 574.1875 C47.58817139 574.27290039 46.48884277 574.35830078 45.35620117 574.44628906 C32.45446793 575.34065109 19.55467855 575.40813145 6.62573242 575.42773438 C2.78867597 575.43740255 -1.04783487 575.4685074 -4.88476562 575.5 C-69.01299282 575.77509247 -130.1178478 556.88528914 -176.3125 511.1875 C-176.90248779 510.61435059 -177.49247559 510.04120117 -178.1003418 509.45068359 C-181.8975763 505.72701697 -185.36847521 501.89095317 -188.625 497.6875 C-189.09156006 497.08639404 -189.55812012 496.48528809 -190.03881836 495.8659668 C-230.17701594 443.51209078 -238.45724606 379.22708176 -238.48046875 315.10546875 C-238.48369934 312.95152263 -238.4870646 310.7975767 -238.49055481 308.64363098 C-238.49648598 304.15865574 -238.4984011 299.67369958 -238.49780273 295.1887207 C-238.49772174 290.66589334 -238.50463287 286.14316782 -238.51831055 281.62036133 C-238.73418367 209.07047562 -235.89741988 128.67580701 -183.3828125 72.41015625 C-181.51624044 70.40623266 -179.75633926 68.34997085 -178 66.25 C-142.44540737 25.74374036 -87.46526909 6.68952916 -35.3125 1.1875 C-34.4037915 1.09106201 -33.49508301 0.99462402 -32.55883789 0.89526367 C-21.72653278 -0.09461985 -10.86762277 -0.0116485 0 0 Z " fill="#FFFFFF" transform="translate(2623.3125,1263.8125)"/>
<path d="M0 0 C2.53562797 -0.09923984 5.06993343 -0.16125326 7.60693359 -0.21386719 C8.42033203 -0.24375732 9.23373047 -0.27364746 10.07177734 -0.30444336 C15.46383315 -0.35616172 18.58943442 0.4090446 22.79443359 4.09863281 C26.58388429 8.76720444 26.22585192 13.36648025 26.19848633 19.10205078 C26.2087812 20.60783691 26.2087812 20.60783691 26.21928406 22.14404297 C26.2375728 25.45977965 26.2337111 28.77504405 26.22802734 32.09082031 C26.2325885 34.398612 26.23789388 36.70640233 26.24391174 39.01419067 C26.25284722 43.85115069 26.25041507 48.68794564 26.24047852 53.52490234 C26.22899508 59.71782527 26.24918907 65.91017749 26.27839565 72.10302544 C26.29675968 76.86947235 26.29646462 81.6357826 26.29075813 86.40225601 C26.29060491 88.68516973 26.29665013 90.9680927 26.30904961 93.25097275 C26.32395907 96.44648557 26.31328153 99.64094546 26.29614258 102.83642578 C26.30581055 103.77588043 26.31547852 104.71533508 26.32543945 105.68325806 C26.25880284 111.62903181 25.39682964 115.29304142 21.79443359 120.09863281 C18.8994001 120.87161507 17.02969783 121.1221229 14.11865234 121.11425781 C13.36540176 121.14036133 12.61215118 121.16646484 11.83607483 121.19335938 C10.22287341 121.24630242 8.60912443 121.28429335 6.99523926 121.30871582 C2.7683223 121.37584885 -1.45414239 121.56007664 -5.67822266 121.72363281 C-6.51094696 121.75257629 -7.34367126 121.78151978 -8.20162964 121.81134033 C-49.69066816 123.29822537 -91.38987741 137.67994568 -127.86181641 156.95410156 C-130.20556641 158.09863281 -130.20556641 158.09863281 -132.20556641 158.09863281 C-132.20328808 159.36162317 -132.20328808 159.36162317 -132.20096374 160.65012848 C-132.11149667 210.52772266 -132.04284307 260.40530835 -132.00130509 310.28296668 C-131.99630212 316.26872271 -131.99112485 322.25447858 -131.98583984 328.24023438 C-131.9847906 329.43191581 -131.98374136 330.62359724 -131.98266032 331.85139023 C-131.96524404 351.15964334 -131.93369961 370.46784893 -131.89695522 389.77607383 C-131.85957984 409.58069716 -131.83733776 429.38529557 -131.82921243 449.18995273 C-131.8237176 461.41543201 -131.80634815 473.64077697 -131.77390054 485.86621492 C-131.75279466 494.24394869 -131.74635745 502.6216128 -131.7515609 510.99937125 C-131.75412879 515.83654324 -131.75012818 520.67348014 -131.72874451 525.51061058 C-131.70931793 529.93726143 -131.70827098 534.36351847 -131.72197083 538.79018722 C-131.7236647 540.39325225 -131.71855746 541.99634158 -131.70603368 543.59935857 C-131.69001156 545.7763938 -131.69861169 547.95200219 -131.71337509 550.12901497 C-131.71109677 551.94369843 -131.71109677 551.94369843 -131.70877242 553.79504216 C-132.45212502 558.73820327 -134.67677046 561.91704859 -138.60019016 564.94940281 C-141.57168468 566.26012738 -143.65051109 566.47830229 -146.8915863 566.48631287 C-148.59275604 566.50116982 -148.59275604 566.50116982 -150.32829285 566.5163269 C-151.5632399 566.51182526 -152.79818695 566.50732361 -154.07055664 566.50268555 C-156.03229324 566.51298042 -156.03229324 566.51298042 -158.03366089 566.52348328 C-161.61430325 566.54140769 -165.19470045 566.54024771 -168.77537417 566.53454089 C-171.76741262 566.53144789 -174.75940406 566.53754274 -177.75143582 566.54357964 C-184.81146258 566.55762097 -191.87136832 566.55606696 -198.93139648 566.54467773 C-206.20864545 566.53319732 -213.48552585 566.54727152 -220.76272625 566.57407421 C-227.01682325 566.59624408 -233.27080467 566.6028657 -239.52493817 566.5969978 C-243.2575695 566.59363 -246.98996459 566.59603121 -250.72256279 566.61324883 C-254.8856725 566.63161461 -259.0480669 566.61751776 -263.21118164 566.6003418 C-264.44410446 566.61000977 -265.67702728 566.61967773 -266.9473114 566.62963867 C-277.58323383 566.53764106 -277.58323383 566.53764106 -282.20556641 562.09863281 C-285.75806876 557.55640505 -285.63043426 553.57265296 -285.58867645 548.05115604 C-285.59363597 547.13377424 -285.59859548 546.21639243 -285.60370529 545.27121118 C-285.61671478 542.18042933 -285.60825967 539.09007572 -285.59997559 535.99928284 C-285.60486194 533.76772359 -285.61105055 531.53616687 -285.61843348 529.30461448 C-285.63488836 523.15920569 -285.63250378 517.01392471 -285.62705851 510.86850154 C-285.62466852 504.92575524 -285.63629831 498.98304083 -285.64743165 493.04030815 C-285.67236176 479.3816953 -285.67685972 465.7231215 -285.67496568 452.06448955 C-285.67359349 441.51879163 -285.67740592 430.97310729 -285.68489075 420.42741203 C-285.68594107 418.91320936 -285.68698869 417.39900669 -285.68803361 415.88480402 C-285.68855295 415.13318062 -285.6890723 414.38155721 -285.68960738 413.60715734 C-285.69012752 412.85417201 -285.69064766 412.10118667 -285.69118357 411.3253836 C-285.69170756 410.57115429 -285.69223155 409.81692498 -285.69277142 409.03984023 C-285.70735803 387.82186887 -285.71563571 366.60390251 -285.71102142 345.38592625 C-285.71084947 344.58578024 -285.71067751 343.78563423 -285.71050035 342.96124137 C-285.70961144 338.90563011 -285.70866662 334.85001886 -285.70770234 330.79440761 C-285.70751131 329.98892614 -285.70732027 329.18344466 -285.70712345 328.35355466 C-285.70673636 326.72467517 -285.70634603 325.09579569 -285.70595247 323.46691621 C-285.69998134 298.11682288 -285.7154244 272.7668208 -285.74755859 247.41674805 C-285.78361697 218.94670112 -285.80297081 190.47671206 -285.79801989 162.00664085 C-285.79754989 158.97231703 -285.79713964 155.9379932 -285.79676819 152.90366936 C-285.7966658 152.15652199 -285.79656342 151.40937462 -285.79645793 150.63958642 C-285.79526201 139.35009156 -285.80724435 128.06065914 -285.82591248 116.77118111 C-285.84712692 103.93548497 -285.85102245 91.09991998 -285.83161288 78.26421804 C-285.82218106 71.71162823 -285.82139509 65.15924728 -285.84196854 58.60667229 C-285.86057996 52.61287264 -285.85628561 46.61955051 -285.83342272 40.62576961 C-285.82921205 38.45287852 -285.83351894 36.27995152 -285.84701866 34.10709829 C-285.8640789 31.16146534 -285.85056155 28.2175186 -285.82918549 25.27195072 C-285.84146301 24.42119116 -285.85374054 23.57043159 -285.86639011 22.69389144 C-285.77647466 16.79435957 -284.44845242 14.22216155 -280.20556641 10.09863281 C-277.08269667 7.94737988 -274.50239243 7.84426896 -270.75369263 7.83120728 C-269.64619659 7.82267731 -268.53870056 7.81414734 -267.39764404 7.80535889 C-265.58190887 7.80671844 -265.58190887 7.80671844 -263.72949219 7.80810547 C-262.45107452 7.80138824 -261.17265686 7.79467102 -259.85549927 7.78775024 C-256.35129363 7.77009253 -252.84718568 7.76539497 -249.34293985 7.76411867 C-247.15250414 7.76269637 -244.96209322 7.75842528 -242.77166367 7.75312424 C-235.12673111 7.73462464 -227.48186826 7.72645352 -219.83691406 7.72802734 C-212.71590864 7.7292287 -205.59520634 7.70812758 -198.47427762 7.67654002 C-192.35609264 7.65036973 -186.23800662 7.63966036 -180.11976612 7.64093816 C-176.46758483 7.64144759 -172.81567295 7.63577573 -169.16354752 7.61458206 C-165.08896485 7.59158207 -161.01505938 7.60072507 -156.94042969 7.61279297 C-155.73398804 7.60155396 -154.52754639 7.59031494 -153.2845459 7.57873535 C-146.96813803 7.62633799 -142.96782354 7.77194855 -138.20556641 12.09863281 C-134.61861692 16.38025975 -134.73621625 20.55920127 -134.69384766 25.89941406 C-134.67589645 26.73578903 -134.65794525 27.572164 -134.63945007 28.43388367 C-134.58547131 31.09291616 -134.55149179 33.75177042 -134.51806641 36.41113281 C-134.4848823 38.21910025 -134.45039162 40.02704421 -134.41455078 41.83496094 C-134.32975216 46.25605605 -134.26288199 50.67709945 -134.20556641 55.09863281 C-133.43067871 54.44491699 -132.65579102 53.79120117 -131.85742188 53.11767578 C-97.79479054 24.48304672 -57.53746629 6.48926311 -13.20556641 1.09863281 C-12.23490234 0.9684375 -11.26423828 0.83824219 -10.26416016 0.70410156 C-6.84475587 0.31256672 -3.43709534 0.15370672 0 0 Z " fill="#FFFFFF" transform="translate(2047.20556640625,1263.9013671875)"/>
<path d="M0 0 C1.13273849 -0.00852997 2.26547699 -0.01705994 3.43254089 -0.02584839 C4.67108322 -0.02494202 5.90962555 -0.02403564 7.18569946 -0.02310181 C8.49337784 -0.02981903 9.80105621 -0.03653625 11.14836121 -0.04345703 C14.73314235 -0.0611166 18.31782801 -0.06581239 21.90264845 -0.0670886 C24.14333684 -0.0685108 26.38400101 -0.07278168 28.62468338 -0.07808304 C36.44467967 -0.09658322 44.2646078 -0.10475367 52.08462524 -0.10317993 C59.36922254 -0.10197855 66.65352354 -0.12308005 73.93804586 -0.15466726 C80.19635674 -0.18083566 86.45457088 -0.191547 92.71293604 -0.19026911 C96.44895192 -0.18975964 100.18470445 -0.19543451 103.92066574 -0.21662521 C108.0886428 -0.23962117 112.25595771 -0.23048333 116.42398071 -0.21841431 C117.65847458 -0.22965332 118.89296844 -0.24089233 120.16487122 -0.25247192 C127.88549284 -0.19557684 131.50591135 0.4447132 137.05886227 5.84837592 C139.12774088 9.4871869 138.84663575 13.11691731 138.81455135 17.19185448 C138.81921127 18.10808244 138.82387119 19.0243104 138.82867232 19.96830285 C138.84069343 23.06118533 138.83119946 26.15363427 138.82191467 29.246521 C138.82608448 31.47721679 138.83156004 33.70791047 138.83823448 35.93860018 C138.85275426 42.08627245 138.84842402 48.23381141 138.84106767 54.38149118 C138.83683804 60.32500746 138.84663312 66.26849598 138.85597529 72.21200274 C138.87566717 85.12293837 138.87798477 98.0338339 138.87278009 110.94478096 C138.86822708 122.24444913 138.86881687 133.54410141 138.87462044 144.84376907 C138.8753773 146.3581086 138.87613328 147.87244813 138.87688838 149.38678766 C138.87803355 151.66862616 138.87918342 153.95046465 138.88034763 156.23230313 C138.89105678 177.45420356 138.89577365 198.67609867 138.88787746 219.89800072 C138.88758029 220.69841274 138.88728312 221.49882477 138.88697694 222.3234917 C138.88452788 228.82384782 138.88191635 235.32420387 138.87929281 241.82455991 C138.86919026 267.18119131 138.87754423 292.5377565 138.90078735 317.89437866 C138.92684639 346.36917733 138.93971145 374.84393612 138.9325996 403.31874716 C138.93188352 406.35364826 138.93120913 409.38854936 138.93055916 412.42345047 C138.93038935 413.17074434 138.93021954 413.91803821 138.93004459 414.68797735 C138.92773936 425.98010398 138.93572928 437.27219364 138.94885063 448.56431198 C138.96374308 461.40367991 138.96463039 474.24296108 138.94677972 487.08232711 C138.93804254 493.6369064 138.93619795 500.19135356 138.95143127 506.74592781 C138.9651934 512.74156151 138.96062486 518.73688603 138.94119204 524.73250146 C138.93740555 526.9060938 138.94042942 529.0797104 138.95080369 531.25328128 C138.96387087 534.19966933 138.95248185 537.14497392 138.93480587 540.09131432 C138.94445638 540.94235973 138.95410689 541.79340514 138.96404985 542.67023981 C138.89799901 548.00378605 137.96537737 551.02986715 134.43423462 555.26742554 C130.84378878 558.04242909 128.24094386 558.64400145 123.74821472 558.65510559 C122.04704498 558.66996254 122.04704498 558.66996254 120.31150818 558.68511963 C119.07656113 558.68061798 117.84161407 558.67611633 116.56924438 558.67147827 C114.60750778 558.68177315 114.60750778 558.68177315 112.60614014 558.692276 C109.02549778 558.71020042 105.44510058 558.70904043 101.86442685 558.70333362 C98.8723884 558.70024062 95.88039696 558.70633546 92.88836521 558.71237236 C85.82833845 558.72641369 78.7684327 558.72485969 71.70840454 558.71347046 C64.43115557 558.70199004 57.15427518 558.71606424 49.87707478 558.74286693 C43.62297778 558.7650368 37.36899636 558.77165842 31.11486286 558.76579052 C27.38223153 558.76242272 23.64983643 558.76482393 19.91723824 558.78204155 C15.75412853 558.80040733 11.59173413 558.78631049 7.42861938 558.76913452 C6.19569656 558.77880249 4.96277374 558.78847046 3.69248962 558.7984314 C-6.9434328 558.70643379 -6.9434328 558.70643379 -11.56576538 554.26742554 C-15.11826773 549.72519778 -14.99063323 545.74144569 -14.94887543 540.21994877 C-14.95383494 539.30256696 -14.95879446 538.38518516 -14.96390426 537.4400039 C-14.97691376 534.34922206 -14.96845865 531.25886844 -14.96017456 528.16807556 C-14.96506091 525.93651631 -14.97124952 523.7049596 -14.97863245 521.47340721 C-14.99508734 515.32799841 -14.99270276 509.18271744 -14.98725748 503.03729427 C-14.98486749 497.09454797 -14.99649728 491.15183356 -15.00763062 485.20910087 C-15.03256074 471.55048802 -15.03705869 457.89191422 -15.03516465 444.23328228 C-15.03379247 433.68758436 -15.0376049 423.14190002 -15.04508972 412.59620476 C-15.04614005 411.08200209 -15.04718766 409.56779942 -15.04823259 408.05359675 C-15.04875193 407.30197334 -15.04927127 406.55034993 -15.04980635 405.77595006 C-15.0503265 405.02296473 -15.05084664 404.2699794 -15.05138254 403.49417633 C-15.05190653 402.73994701 -15.05243053 401.9857177 -15.0529704 401.20863295 C-15.06755701 379.9906616 -15.07583469 358.77269523 -15.0712204 337.55471897 C-15.07104844 336.75457296 -15.07087649 335.95442695 -15.07069932 335.13003409 C-15.06981041 331.07442283 -15.0688656 327.01881158 -15.06790131 322.96320034 C-15.06771028 322.15771886 -15.06751925 321.35223739 -15.06732243 320.52234738 C-15.06693533 318.8934679 -15.06654501 317.26458842 -15.06615145 315.63570894 C-15.06018031 290.2856156 -15.07562338 264.93561353 -15.10775757 239.58554077 C-15.14381594 211.11549384 -15.16316979 182.64550478 -15.15821886 154.17543358 C-15.15774887 151.14110975 -15.15733862 148.10678592 -15.15696716 145.07246208 C-15.15686478 144.32531471 -15.15676239 143.57816734 -15.1566569 142.80837914 C-15.15546099 131.51888429 -15.16744333 120.22945186 -15.18611145 108.93997383 C-15.20732589 96.10427769 -15.21122143 83.26871271 -15.19181186 70.43301076 C-15.18238003 63.88042096 -15.18159406 57.32804 -15.20216751 50.77546501 C-15.22077893 44.78166537 -15.21648459 38.78834324 -15.1936217 32.79456233 C-15.18941103 30.62167125 -15.19371791 28.44874424 -15.20721763 26.27589101 C-15.22427787 23.33025807 -15.21076052 20.38631132 -15.18938446 17.44074345 C-15.20166199 16.58998388 -15.21393951 15.73922432 -15.22658908 14.86268416 C-15.13667233 8.96306643 -13.80828181 6.39130503 -9.56576538 2.26742554 C-6.41550073 0.08943832 -3.78454394 0.01289013 0 0 Z " fill="#FFFFFF" transform="translate(2160.5657653808594,1271.7325744628906)"/>
<path d="M0 0 C1.20005173 -0.00852997 2.40010345 -0.01705994 3.63652039 -0.02584839 C4.94986862 -0.02494202 6.26321686 -0.02403564 7.61636353 -0.02310181 C9.01607115 -0.0290874 10.41577548 -0.03589302 11.81547546 -0.04345703 C15.61512473 -0.06112119 19.4146839 -0.06581258 23.21437025 -0.0670886 C25.58906586 -0.06851053 27.96373858 -0.0727809 30.3384285 -0.07808304 C38.62526147 -0.09658468 46.91203011 -0.10475348 55.19888306 -0.10317993 C62.91972595 -0.10197849 70.6402893 -0.12308092 78.36106145 -0.15466726 C84.99304149 -0.18083101 91.62493022 -0.19154719 98.25696146 -0.19026911 C102.21653675 -0.1897595 106.17586361 -0.19544179 110.13538742 -0.21662521 C113.86029588 -0.2360095 117.58471898 -0.23613121 121.3096447 -0.22159195 C123.32427702 -0.21850861 125.33890939 -0.23517896 127.35346985 -0.25247192 C138.47016194 -0.17512404 138.47016194 -0.17512404 143.13052368 4.26742554 C143.74094009 4.80718521 144.35135651 5.34694489 144.98027039 5.90306091 C146.88436558 9.81695999 146.55511247 13.80501798 146.53457642 18.09725952 C146.54143967 19.09442993 146.54830292 20.09160034 146.55537415 21.11898804 C146.57368487 24.41730971 146.56979843 27.71515766 146.56411743 31.01351929 C146.56867721 33.30511124 146.57398216 35.59670182 146.58000183 37.88829041 C146.58894138 42.69254103 146.58650016 47.49662549 146.5765686 52.3008728 C146.56507867 58.45927149 146.58528702 64.61709683 146.61448574 70.77542019 C146.63282683 75.5083328 146.6325594 80.24110749 146.62684822 84.97404671 C146.62669475 87.24465807 146.63276052 89.51527863 146.64513969 91.78585625 C146.6600077 94.96033629 146.64940265 98.13375046 146.63223267 101.30819702 C146.64673462 102.71649529 146.64673462 102.71649529 146.66152954 104.15324402 C146.61423349 108.32658174 146.5126728 110.64618773 144.28666687 114.26487732 C139.27555284 118.91901973 134.98731264 119.39002281 128.36857605 119.40113831 C127.21763458 119.40540329 126.06669312 119.40966827 124.88087463 119.4140625 C123.00040184 119.41338272 123.00040184 119.41338272 121.0819397 119.41268921 C119.74119982 119.41568313 118.40046079 119.4190862 117.0597229 119.42286682 C113.42542988 119.4316863 109.79116042 119.43404404 106.15685773 119.43468261 C103.88484723 119.43539416 101.61284268 119.43753044 99.34083366 119.44017982 C91.41061906 119.44942572 83.48042124 119.45351557 75.55020142 119.45272827 C68.16399786 119.45212734 60.77786729 119.46268405 53.39168221 119.47847193 C47.04419059 119.49155504 40.69672282 119.49691186 34.34921783 119.49627286 C30.56075881 119.49601815 26.77236471 119.49885492 22.98391914 119.50945091 C19.42080553 119.51914513 15.85781876 119.51920205 12.29470062 119.51193428 C10.36836125 119.51039334 8.44202186 119.51872553 6.51570129 119.52737427 C4.78505936 119.52108253 4.78505936 119.52108253 3.01945496 119.5146637 C2.0211947 119.51520846 1.02293444 119.51575323 -0.00557613 119.51631451 C-5.7235585 119.01938981 -9.65715327 117.11869233 -13.86947632 113.26742554 C-15.01146628 110.98344561 -15.00451156 109.69585417 -15.02337646 107.15701294 C-15.03197693 106.2962767 -15.04057739 105.43554047 -15.04943848 104.54872131 C-15.05369843 103.60221207 -15.05795837 102.65570282 -15.06234741 101.68051147 C-15.0705249 100.68523941 -15.07870239 99.68996735 -15.08712769 98.66453552 C-15.11200515 95.3602967 -15.128504 92.05610092 -15.14291382 88.75180054 C-15.1482375 87.62476967 -15.15356117 86.4977388 -15.15904617 85.33655548 C-15.18578831 79.37097351 -15.2051596 73.40541253 -15.21957397 67.43978882 C-15.2362219 61.27467586 -15.28099847 55.11009744 -15.33194542 48.94518661 C-15.36558633 44.20797098 -15.37714802 39.47088267 -15.38280106 34.73355865 C-15.3895225 32.46094936 -15.40476758 30.18834871 -15.42869186 27.91585541 C-15.46027656 24.73409874 -15.4603897 21.55378972 -15.45297241 18.37191772 C-15.46937775 17.4335054 -15.48578308 16.49509308 -15.50268555 15.52824402 C-15.46170612 11.23242416 -15.29651864 8.21009005 -12.58300781 4.76089478 C-8.37305552 0.89236162 -5.70689484 0.01833825 0 0 Z " fill="#FFFFFF" transform="translate(2156.8694763183594,1073.7325744628906)"/>
</svg>
